<?xml version="1.0" standalone="no"?>
<!DOCTYPE svg PUBLIC "-//W3C//DTD SVG 1.1//EN" "http://www.w3.org/Graphics/SVG/1.1/DTD/svg11.dtd" >
<svg xmlns="http://www.w3.org/2000/svg">
<metadata>
This is a custom SVG font generated by IcoMoon.
<iconset grid="16"></iconset>
</metadata>
<defs>
<font id="litmus-icons" horiz-adv-x="512" >
<font-face units-per-em="512" ascent="480" descent="-32" />
<missing-glyph horiz-adv-x="512" />
<glyph unicode="&#x65;" d="M 402.5,72.886L 347.352,18L 142.332,224L 347.352,430L 402.5,375.113L 252.105,224 z"  />
<glyph unicode="&#x66;" d="M 142.332,375.114L 197.48,430L 402.5,224L 197.48,18L 142.332,72.887L 292.727,224 z"  />
<glyph unicode="&#x41;" d="M 323.281,395.847L 196.635,213.585L 196.635,97.146 L 138.727,139.43L 138.727,213.585 L 11.040,395.847Q 3.541,411.678 36.869,421.676Q 76.029,433.758 152.475,435.632Q 160.599,435.841 167.264,435.841Q 225.797,435.841 271.414,427.925Q 326.822,418.135 324.531,400.013Q 324.322,397.93 323.281,395.847ZM 167.264,415.011Q 116.231,415.011 77.696,409.386T 39.16,395.847Q 39.16,388.348 77.487,382.932T 167.264,377.517Q 218.506,377.517 257.666,382.932T 296.827,395.847Q 296.827,403.554 257.458,409.178T 167.264,415.011Z" horiz-adv-x="333.904" />
<glyph unicode="&#x42;" d="M 381.396,267.743Q 381.396,295.863 367.648,319.609T 330.155,357.312T 278.496,371.059T 227.046,357.312T 189.552,319.818T 175.805,267.743Q 175.805,239.831 189.552,216.293T 226.838,178.799T 278.496,165.051T 330.155,178.799T 367.648,216.085T 381.396,267.743ZM 541.37,277.116Q 526.164,251.912 507.417,230.666T 469.924,194.213T 430.763,167.134T 392.020,147.554T 355.984,134.64T 324.114,126.516T 299.118,122.558T 282.454,120.892L 276.413,120.683Q 274.33,120.683 270.789,120.892T 255.375,122.35T 231.212,126.308T 201.009,134.431T 165.598,147.346T 127.271,166.926T 87.277,194.213T 48.117,230.457T 10.623,277.116Q 26.454,299.196 45.618,317.943T 83.945,350.021T 123.313,373.976T 162.057,391.264T 197.884,402.721T 229.338,409.803T 254.125,413.344T 270.581,415.011L 276.413,415.011 Q 279.954,415.011 286.203,414.802T 312.033,411.678T 350.776,404.387T 396.81,389.181T 447.427,364.81T 496.586,328.15T 541.37,277.116ZM 336.612,291.697T 336.612,267.743T 319.74,227.124T 278.496,210.252Q 254.542,210.252 237.67,226.916T 220.589,267.743T 237.461,308.778T 278.496,325.858T 319.531,308.778Z" horiz-adv-x="553.243" />
<glyph unicode="&#x43;" d="M 85.403,432.924L 341.194,432.924 L 341.194,206.295 L 266.207,206.295 L 266.207,101.937 L 10.207,101.937 L 10.207,324.609 L 85.403,324.609 L 85.403,432.924 ZM 226.005,141.93L 226.005,246.496 L 50.408,246.496 L 50.408,141.93 L 226.005,141.93 ZM 301.201,246.496L 301.201,354.812 L 125.396,354.812 L 125.396,324.609 L 266.207,324.609 L 266.207,246.496 L 301.201,246.496 Z" horiz-adv-x="351.818" />
<glyph unicode="&#x44;" d="M 159.974,430.425Q 176.43,430.425 188.303,418.552T 200.176,389.806L 200.176,141.93 Q 200.176,125.058 188.511,113.185T 159.974,101.103L 50.825,101.103 Q 34.161,101.103 22.496,112.976T 10.623,141.93L 10.623,389.806 Q 10.623,406.47 22.288,418.343T 50.825,430.425L 159.974,430.425 ZM 97.484,122.766T 105.4,122.766T 118.939,128.391T 124.563,141.93T 118.939,155.678T 105.4,161.51T 91.652,155.678T 85.819,141.93T 91.652,128.391ZM 175.388,177.758L 175.388,385.224 L 35.411,385.224 L 35.411,177.758 L 175.388,177.758 Z" horiz-adv-x="210.591" />
<glyph unicode="&#x45;" d="M 338.278,298.779T 338.278,265.66T 325.364,202.337T 290.786,150.47T 238.711,115.684T 175.388,102.77T 112.065,115.684T 59.99,150.262T 25.204,202.337T 12.29,265.66T 25.204,328.983T 59.99,380.849T 112.065,415.635T 175.388,428.55T 238.711,415.635T 290.578,381.058T 325.364,328.983ZM 93.943,265.243L 175.388,184.215L 256.417,265.243L 195.385,265.243 L 195.385,347.105 L 154.766,347.105 L 154.766,265.243 L 93.943,265.243 Z" horiz-adv-x="348.068" />
<glyph unicode="&#x46;" d="M 107.066,121.517L 107.066,163.385 L 359.525,163.385 L 359.525,121.517 L 107.066,121.517 ZM 107.066,289.614L 107.066,331.899 L 359.525,331.899 L 359.525,289.614 L 107.066,289.614 ZM 65.198,142.347Q 65.198,133.806 59.157,127.766T 43.951,121.517Q 35.411,121.517 29.37,127.557T 23.121,142.347Q 23.121,151.095 29.162,157.136T 43.951,163.385Q 52.908,163.385 58.949,157.344T 65.198,142.347ZM 65.198,310.861Q 65.198,301.904 59.157,295.863T 43.951,289.614Q 35.411,289.614 29.37,295.655T 23.121,310.861Q 23.121,319.401 29.162,325.65T 43.951,331.899Q 52.908,331.899 58.949,325.858T 65.198,310.861ZM 107.066,205.461L 107.066,247.746 L 359.525,247.746 L 359.525,205.461 L 107.066,205.461 ZM 65.198,226.5Q 65.198,217.751 59.157,211.71T 43.951,205.461Q 35.411,205.461 29.37,211.502T 23.121,226.5Q 23.121,235.456 29.162,241.497T 43.951,247.746Q 52.908,247.746 58.949,241.705T 65.198,226.5ZM 107.066,373.559L 107.066,415.844 L 359.525,415.844 L 359.525,373.559 L 107.066,373.559 ZM 65.198,395.014Q 65.198,386.057 59.157,379.808T 43.951,373.559Q 35.411,373.559 29.37,379.808T 23.121,395.014Q 23.121,403.554 29.162,409.595T 43.951,415.844Q 52.908,415.844 58.949,409.803T 65.198,395.014Z" horiz-adv-x="387.645" />
<glyph unicode="&#x47;" d="M 242.252,236.29Q 241.627,235.040 240.169,235.040L 160.391,232.749Q 153.933,232.749 150.6,227.333Q 147.268,221.5 149.767,216.293L 192.885,117.142Q 193.51,115.059 191.635,113.81L 176.638,107.352Q 176.221,106.936 175.805,106.936Q 174.347,106.936 173.722,108.186L 125.396,206.295Q 122.688,211.919 116.439,213.168L 114.773,213.168 Q 109.566,213.168 106.233,209.836L 49.575,152.97Q 49.159,152.553
47.701,152.553L 46.867,152.553 Q 45.618,153.178 45.618,154.845L 45.618,420.010 Q 45.618,422.093 46.867,422.718L 47.701,422.718 Q 49.159,422.718 49.575,422.301L 241.836,238.789Q 243.085,238.164 242.252,236.29Z" horiz-adv-x="248.501" />
<glyph unicode="&#x48;" d="M 108.732,422.718Q 148.101,422.718 176.013,394.806T 203.925,327.525Q 203.925,304.195 178.304,255.453Q 172.055,230.041 169.347,214.418L 46.034,214.418 Q 41.868,241.497 37.077,258.786Q 13.748,303.57 13.748,327.525Q 13.748,366.893 41.452,394.806T 108.732,422.718ZM 52.075,163.801Q 50.617,171.925 49.159,190.255L 166.431,190.255 Q 164.973,179.007 163.307,163.801L 52.075,163.801 ZM 108.732,112.143Q 85.194,112.143 73.738,118.6T 57.074,139.43L 159.557,139.43 Q 155.6,124.849 144.56,118.6T 108.732,112.143Z" horiz-adv-x="218.714" />
<glyph unicode="&#x49;" d="M 310.574,312.527Q 323.072,312.527 331.613,303.987T 340.361,282.74L 340.361,137.764 Q 340.361,125.266 331.821,116.517T 310.574,107.769L 45.201,107.769 Q 32.703,107.769 24.163,116.517T 15.414,137.764L 15.414,282.74 Q 15.414,295.238 23.954,303.779T 45.201,312.527L 76.862,312.527 L 76.862,428.55 L 278.913,428.55 L 278.913,312.527 L 310.574,312.527 ZM 93.526,411.678L 93.526,238.789 L 261.832,238.789 L 261.832,411.678 L 93.526,411.678 ZM 263.29,145.471L 263.29,178.174 L 92.068,178.174 L 92.068,145.471 L 263.29,145.471 Z" horiz-adv-x="353.484" />
<glyph unicode="&#x4a;" d="M 159.557,226.083L 159.557,326.275 Q 159.557,335.44 153.308,341.689T 137.894,347.938L 35.828,347.938 Q 26.871,347.938 20.622,341.689T 14.164,326.275L 14.164,226.083 L 42.701,226.083 L 42.701,102.77 L 129.354,102.77 L 129.354,226.083 L 159.557,226.083 ZM 120.397,411.261T 120.397,396.68T 109.982,371.684T 84.986,361.269Q 70.197,361.269 59.99,371.476T 49.575,396.68T 59.782,421.676T 84.986,432.091Q 99.567,432.091 109.982,421.676Z" horiz-adv-x="174.763" />
<glyph unicode="&#x4b;" d="M 18.747,424.384L 332.654,424.384 L 332.654,110.477 L 18.747,110.477 L 18.747,424.384 ZM 311.408,299.821L 311.408,344.605 L 234.962,344.605 L 227.88,344.605 L 227.88,299.821 L 311.408,299.821 ZM 221.422,241.289L 221.422,293.364 L 130.187,293.364 L 130.187,241.289 L 221.422,241.289 ZM 130.187,299.821L 221.422,299.821 L 221.422,344.605 L 213.715,344.605 L 137.894,344.605 L 130.187,344.605 L 130.187,299.821 ZM 116.439,344.605L 40.202,344.605 L 40.202,299.821 L 123.73,299.821 L 123.73,344.605 L 116.439,344.605 ZM 123.73,293.364L 40.202,293.364 L 40.202,241.289 L 123.73,241.289 L 123.73,293.364 ZM 40.202,235.040L 40.202,182.965 L 123.73,182.965 L 123.73,235.040 L 40.202,235.040 ZM 130.187,235.040L 130.187,182.965 L 221.422,182.965 L 221.422,235.040 L 130.187,235.040 ZM 227.88,235.040L 227.88,182.965 L 311.408,182.965 L 311.408,235.040 L 227.88,235.040 ZM 227.88,241.289L 311.408,241.289 L 311.408,293.364 L 227.88,293.364 L 227.88,241.289 ZM 40.202,131.723L 123.73,131.723 L 123.73,176.508 L 40.202,176.508 L 40.202,131.723 ZM 130.187,131.723L 221.422,131.723 L 221.422,176.508 L 130.187,176.508 L 130.187,131.723 ZM 227.88,176.508L 227.88,131.723 L 311.408,131.723 L 311.408,176.508 L 227.88,176.508 Z" horiz-adv-x="352.234" />
<glyph unicode="&#x4c;" d="M 352.443,417.927Q 358.275,412.719 358.275,403.138L 358.275,113.81 L 19.997,113.81 L 19.997,403.138 Q 19.997,412.719 26.037,417.927Q 32.286,424.384 41.035,424.384L 337.445,424.384 Q 345.985,424.384 352.443,417.927ZM 326.822,145.471L 326.822,336.065 L 51.658,336.065 L 51.658,145.471 L 326.822,145.471 ZM 136.020,393.139T 130.604,393.139T 121.23,389.39T 117.273,380.016T 121.23,370.643T 130.604,366.685T 139.769,370.643T 143.727,380.016T 139.977,389.181ZM 91.235,393.139Q 85.819,393.139 82.070,389.39T 78.112,380.016T 81.862,370.643T 91.235,366.685Q 96.859,366.685 100.609,370.434T 104.566,380.016Q 104.566,385.432 100.817,389.181T 91.235,393.139ZM 52.075,393.139Q 46.659,393.139 42.701,389.39T 38.744,380.016T 42.701,370.643T 52.075,366.685Q 57.699,366.685 61.448,370.434T 65.198,380.016T 61.448,389.39T 52.075,393.139Z" horiz-adv-x="377.855" />
<glyph unicode="&#x4d;" d="M 182.679,321.901L 184.97,321.692Q 187.469,321.692 189.136,321.276T 192.469,319.609T 193.51,315.86T 189.344,309.194L 24.788,113.393L 90.402,254.62Q 92.277,259.411 90.61,261.494T 86.028,263.785L 83.111,263.993L 32.911,263.993 Q 26.871,263.993 24.788,266.91T 23.746,273.159L 24.788,276.283L 82.278,400.43L 148.934,414.177L 109.982,335.648Q 107.066,328.358 108.316,325.234T 112.482,322.109L 115.606,321.901L 180.804,321.901 L 182.679,321.901 Z" horiz-adv-x="218.298" />
<glyph unicode="&#x4e;" d="M 381.396,380.016L 381.396,377.933 L 381.396,163.801 Q 381.396,153.386 374.106,146.096T 356.609,138.597L 54.574,138.597 Q 44.368,138.597 37.077,145.888T 29.787,163.801L 29.787,377.933 L 29.787,380.016 L 29.787,380.016 Q 30.828,389.598 37.91,396.055T 54.574,402.721L 356.609,402.721 Q 366.19,402.721 373.273,396.264T 381.396,380.016ZM 309.325,367.727L 101.858,367.727 L 205.592,284.407L 309.325,367.727ZM 346.402,174.008L 346.402,351.896 L 216.631,248.163Q 211.632,244.413 205.592,244.413T 194.552,248.163L 64.781,351.896L 64.781,174.008 L 346.402,174.008 Z" horiz-adv-x="413.683" />
<glyph unicode="&#x4f;" d="M 129.771,301.904L 129.771,300.238 Q 130.395,298.988 131.020,298.988L 192.885,298.571Q 193.718,298.571 194.552,299.404L 194.552,300.654 Q 193.094,310.653 188.511,316.902Q 180.179,327.733 162.474,327.108Q 149.767,326.483 139.977,317.735Q 135.395,313.152 129.771,301.904ZM 138.311,113.81Q 75.821,127.974 41.66,174.425T 13.748,291.281Q 16.247,318.985 26.246,342.106T 51.45,381.266T 86.028,408.553T 127.063,424.384T 171.014,428.55Q 188.928,427.925 206.216,422.718T 239.128,406.887T 267.248,381.891T 287.245,347.313T 296.41,303.57Q 298.493,276.075 289.745,251.079T 264.54,209.419Q 245.168,189.839 221.006,183.173T 172.264,179.841Q 154.766,182.132 139.561,189.006T 111.857,207.753T 92.277,238.164T 86.236,280.241Q 86.861,297.53 94.568,314.61T 115.606,343.772Q 124.771,351.896 138.103,357.103T 165.598,362.103Q 195.385,360.853 212.882,338.148Q 219.339,329.608 223.505,317.735T 228.921,296.488T 230.587,279.199T 230.379,270.451L 229.963,268.159Q 229.338,262.744 223.922,262.744L 126.646,263.16Q 126.438,263.16 126.021,262.952T 125.396,262.744Q 125.396,262.535 125.188,261.91T 124.98,261.077Q 126.854,250.454 132.062,242.122T 143.31,229.207T 156.641,221.709T 168.098,217.751T 176.221,216.293Q 212.674,210.877 236.42,234.623Q 248.71,246.496 254.125,261.077T 260.166,301.904Q 260.583,312.736 257.458,324.609T 246.627,349.188T 227.671,371.476T 198.926,387.723T 159.974,394.181Q 147.893,394.181 134.353,390.431T 106.858,377.933T 81.028,357.312T 61.24,327.108T 51.242,287.531Q 46.659,232.957 73.946,194.63T 150.184,147.971Q 153.725,147.346 159.766,146.513T 183.095,145.263T 215.173,146.304T 246.835,154.428T 273.497,171.925Q 276.622,173.592 278.080,170.467L 291.828,143.18Q 292.661,141.513 292.244,140.68Q 291.411,139.014 290.994,138.597Q 289.953,137.556 287.87,135.889T 278.496,129.849T 262.666,121.725T 240.794,114.226T 212.882,108.81T 178.721,108.186T 138.311,113.81Z" horiz-adv-x="310.783" />
<glyph unicode="&#x50;" d="M 82.695,371.476Q 82.070,372.101 80.82,372.726T 73.738,374.6T 59.365,374.392L 32.495,421.468L 43.951,432.924L 91.235,406.054Q 90.402,397.097 91.027,391.889T 93.11,384.807L 94.36,382.932L 149.351,327.525Q 140.394,324.817 133.103,321.068L 82.695,371.476ZM 76.029,209.002Q 81.028,176.091 104.983,152.137L 79.362,124.849Q 77.696,123.183
73.53,117.976T 66.031,109.435T 59.782,105.686Q 55.199,105.269 51.033,107.977T 41.035,117.351T 34.161,124.849Q 32.911,126.099 28.537,130.057T 21.663,136.723T 17.081,143.18T 14.998,150.47Q 15.414,153.595 18.33,156.928T 27.079,164.635T 34.161,170.050L 76.029,209.002ZM 281.204,250.246Q 361.816,179.216 361.816,162.968Q 361.816,147.138 340.778,125.266Q 319.115,104.436 302.867,104.436Q 291.619,104.436 249.126,148.387Q 265.373,163.177 274.747,183.59T 284.12,226.916Q 284.12,240.247
281.204,250.246ZM 363.899,340.856Q 367.857,338.356 373.481,332.732T 378.897,323.775Q 379.522,318.776 372.856,312.527L 359.525,299.404Q 353.484,292.947 348.068,292.947Q 344.944,292.947 339.32,298.779T 331.404,308.778Q 329.738,311.694 328.072,318.985T 324.739,329.191Q 319.74,337.94 312.449,341.273T 293.077,345.022L 281.204,343.772Q 278.080,343.356 274.955,341.273T 267.040,334.399T 260.999,328.775Q 248.085,316.277
242.669,310.444Q 230.379,319.818 212.465,326.275Q 229.546,342.522 238.086,351.479Q 239.128,352.521 242.669,356.062T 247.668,361.478T 251.209,366.269T 253.5,371.476Q 255.583,385.432 239.753,395.43T 202.259,408.762T 162.474,409.386Q 162.265,411.886 162.89,413.552T 164.557,415.844T 167.473,417.302T 170.181,418.343Q 162.474,420.218 166.848,426.050Q 170.181,427.717 173.722,428.758T 182.054,430.425T 189.552,431.258T 198.509,431.466T 206.841,431.675Q 277.247,432.716 327.655,379.183Q 328.072,367.102 331.196,359.811T 343.069,347.522Q 346.402,345.647 353.484,344.189T 363.899,340.856ZM 158.308,192.338Q 167.056,187.339 175.805,186.714L 175.805,130.474 Q 148.309,131.098 124.98,146.721L 158.308,192.338ZM 175.805,265.243Q 166.223,264.618 157.891,259.203L 124.98,305.445Q 147.684,320.651 175.805,321.901L 175.805,265.243 ZM 232.462,305.445L 199.134,259.619Q 191.011,264.618 181.637,265.243L 181.637,321.901 Q 210.174,320.651 232.462,305.445ZM 142.477,211.085Q 145.393,202.545 153.517,196.088L 120.397,150.054Q 98.109,166.926 88.736,193.588L 142.477,211.085ZM 153.1,255.87Q 145.601,249.621 142.477,240.872L 88.736,258.369Q 98.109,284.823 119.772,301.904L 153.1,255.87ZM 139.561,226.083Q 139.561,221.084 140.81,216.71L 87.069,199.212Q 83.111,212.752 83.111,226.083Q 83.111,238.373 86.653,252.954L 140.394,235.456Q 139.561,229.207 139.561,226.083ZM 204.342,196.088Q 211.632,202.129 215.382,211.085L 269.123,193.588Q 259.749,167.967 237.67,150.47L 204.342,196.088ZM 181.637,186.714Q 191.427,187.339 199.551,192.755L 232.879,147.138Q 209.549,131.098 181.637,130.474L 181.637,186.714 ZM 270.789,252.954Q 274.747,240.456 274.747,226.083T 270.789,199.212L 217.048,216.71Q 218.090,219.626 218.090,226.083Q 218.090,232.332 217.048,235.456L 270.789,252.954ZM 214.965,240.872Q 211.841,249.621 204.342,256.286L 237.67,301.904Q 260.166,284.199 268.706,258.369L 214.965,240.872Z" horiz-adv-x="397.435" />
<glyph unicode="&#x51;" d="M 250.376,164.635L 162.89,164.635 L 206.841,310.028L 250.376,164.635ZM 411.6,19.45L 248.71,437.090L 164.765,437.090 L0,19.45L 111.44,19.45 L 133.52,79.648L 278.496,79.648 L 299.118,19.45L 411.6,19.45 ZM 1078.366,105.061T 1078.366,79.232T 1060.036,35.072T 1015.668,16.534Q 989.422,16.534 971.092,34.864T 952.553,79.232T 970.884,123.6T 1015.668,141.93Q 1041.497,141.93 1059.828,123.6ZM 807.993,19.45L 807.993,437.090 L 902.77,437.090 L 902.77,19.45 L 807.993,19.45 ZM 556.576,97.979T 587.404,97.979T 640.104,120.475T 661.976,176.924Q 661.976,210.877 640.104,233.582T 587.404,256.286T 534.705,233.582T 512.833,176.924Q 512.833,143.18 534.705,120.683ZM 554.493,343.772T 587.404,343.772T 648.228,333.774T 695.72,307.32T 728.84,268.993T 749.045,223.792T 755.502,176.924T 749.045,130.057T 728.84,85.064T 695.72,46.945T 648.436,20.491T 587.404,10.493T 526.581,20.283T 479.089,46.737T 445.969,85.064T 425.764,130.057T 419.307,176.924T 425.764,223.792T 445.969,268.784T 479.089,307.111T 526.373,333.774Z" horiz-adv-x="1103.57" />
<glyph unicode="&#x52;" d="M 1115.652,256.703L 1115.652,19.45 L 1061.286,19.45 L 1061.286,256.703 L 1115.652,256.703 ZM 1086.073,289.198Q 1098.988,289.198 1108.153,298.363T 1117.318,320.651T 1108.153,342.939T 1086.073,352.312Q 1072.95,352.312 1063.785,343.147T 1054.62,320.651T 1063.785,298.363T 1086.073,289.198ZM 839.447,237.123L 847.154,241.289L 854.861,244.83L 863.401,248.163L 872.358,250.246L 881.315,252.537L 891.105,253.787L 901.312,254.203L 912.143,254.203 L 922.35,254.203 L 927.349,253.787L 932.14,252.954L 936.306,252.537L 941.097,251.079L 945.263,249.829L 949.637,248.579L 956.928,245.247L 960.677,243.58L 964.010,241.289L 967.134,239.206L 970.467,236.29L 973.592,233.79L 976.508,230.666L 978.591,228.166L 981.090,224.625L 982.965,221.292L 985.048,217.543L 986.714,213.585L 988.797,209.836L 990.047,205.461L 991.922,201.295L 992.755,196.504L 994.005,191.922L 994.838,186.714L 995.671,181.715L 996.088,176.091L 996.504,170.467L 996.504,165.051 L 996.921,158.594L 996.921,57.985 L 996.921,50.695 L 997.338,43.821L 997.754,37.78L 998.171,31.531L 998.587,25.907L 999.421,20.908L 958.177,20.908 L 954.636,42.155L 953.803,44.238L 953.386,45.904L 951.303,46.737L 949.637,46.737 L 947.138,46.737 L 946.096,46.321L 945.263,45.904L 944.43,44.654L 941.93,41.321L 939.014,37.78L 935.889,34.864L 932.973,31.948L 929.64,29.448L 927.766,28.407L 926.516,27.157L 923.183,24.657L 919.642,22.574L 917.559,22.158L 915.893,21.325L 912.143,19.45L 907.769,18.2L 904.020,16.95L 899.645,16.534L 897.146,16.117L 895.479,15.701L 890.688,15.284L 886.106,15.284 L 878.815,15.701L 872.358,16.534L 865.901,18.2L 860.068,20.491L 854.444,23.408L 849.028,26.74L 843.821,31.115L 839.447,35.697L 835.697,40.488L 832.365,45.487L 829.657,51.111L 827.574,56.319L 825.907,62.151L 825.074,65.692L 824.657,68.609L 823.824,75.066L 823.824,81.315 L 824.241,91.73L 825.491,101.52L 826.324,105.686L 827.574,110.477L 831.531,117.976L 835.281,125.683L 840.905,132.973L 843.404,136.098L 846.737,139.014L 850.695,142.347L 854.444,145.055L 858.402,147.554L 862.568,150.054L 867.359,152.553L 871.941,154.428L 882.148,158.594L 887.356,160.26L 892.771,161.51L 898.395,162.968L 904.436,164.218L 910.269,165.051L 916.726,165.468L 923.183,166.301L 930.057,166.718L 944.013,166.718 L 945.679,167.134L 946.721,167.967L 947.138,167.967 L 947.138,168.384 L 947.554,168.384 L 948.804,170.467L 949.221,171.925L 949.221,172.758 L 949.221,176.508 L 949.221,182.548 L 948.387,187.548L 947.554,192.338L 946.096,196.504L 945.263,198.796L 944.43,200.462L 942.347,204.212L 940.264,207.336L 937.139,210.252L 934.223,212.752L 930.474,215.251L 926.516,217.543L 922.766,218.793L 917.976,220.042L 913.393,220.459L 907.769,220.876L 902.77,220.876 L 895.063,220.876 L 887.772,220.459L 880.482,219.626L 873.608,217.959L 866.942,216.293L 860.485,213.585L 854.028,210.669L 847.987,207.336L 839.447,237.123ZM 890.272,126.099L 885.273,122.766L 882.981,121.1L 880.898,119.434L 877.566,115.059L 874.858,110.477L 872.358,105.686L 870.692,100.062L 869.858,94.646L 869.858,88.189 L 869.858,83.606 L 870.275,79.232L 870.692,75.483L 871.941,71.108L 872.775,68.192L 874.441,64.651L 876.316,62.151L 878.399,59.235L 880.898,57.152L 883.398,54.861L 886.106,53.194L 889.439,51.945L 892.771,51.111L 896.729,50.278L 900.478,49.862L 905.269,49.445L 905.686,49.862L 908.602,49.862 L 912.56,50.278L 915.893,51.111L 919.642,51.945L 923.183,53.194L 923.6,54.028L 924.849,54.444L 926.516,54.861L 930.057,57.152L 933.39,59.235L 934.64,60.485L 935.889,62.151L 938.597,64.651L 939.847,66.526L 941.097,68.192L 943.18,71.108L 945.263,74.233L 946.721,77.566L 948.387,81.315L 948.804,83.19L 949.637,84.856L 949.637,86.106 L 949.637,86.522 L 950.054,88.189L 950.054,89.022 L 950.47,89.855L 950.887,91.73L 950.887,95.479 L 950.887,97.562 L 951.303,99.229L 951.303,131.723 L 950.887,132.973L 950.887,134.223 L 949.637,135.473L 948.804,136.514L 947.971,136.931L 946.721,137.347L 946.096,136.931L 936.723,137.347L 928.182,136.931L 920.683,136.098L 913.393,134.64L 906.519,133.39L 900.478,131.307L 895.063,128.807L 890.272,126.099ZM 910.269,220.876L 910.269,254.203 L 912.143,254.203 L 922.35,254.203 L 927.349,253.787L 932.14,252.954L 936.306,252.537L 941.097,251.079L 945.263,249.829L 949.637,248.579L 956.928,245.247L 960.677,243.58L 964.010,241.289L 967.134,239.206L 970.467,236.29L 973.592,233.79L 976.508,230.666L 978.591,228.166L 981.090,224.625L 982.965,221.292L 985.048,217.543L 986.714,213.585L 988.797,209.836L 990.047,205.461L 991.922,201.295L 992.755,196.504L 994.005,191.922L 994.838,186.714L 995.671,181.715L 996.088,176.091L 996.504,170.467L 996.504,165.051 L 996.921,158.594L 996.921,57.985 L 996.921,50.695 L 997.338,43.821L 997.754,37.78L 998.171,31.531L 998.587,25.907L 999.421,20.908L 958.177,20.908 L 954.636,42.155L 953.803,44.238L 953.386,45.904L 951.303,46.737L 949.637,46.737 L 947.138,46.737 L 946.096,46.321L 945.263,45.904L 944.43,44.654L 941.93,41.321L 939.014,37.78L 935.889,34.864L 932.973,31.948L 929.64,29.448L 927.766,28.407L 926.516,27.157L 923.183,24.657L 919.642,22.574L 917.559,22.158L 915.893,21.325L 912.143,19.45L 910.269,19.033L 910.269,49.862 L 912.56,50.278L 915.893,51.111L 919.642,51.945L 923.183,53.194L 923.6,54.028L 924.849,54.444L 926.516,54.861L 930.057,57.152L 933.39,59.235L 934.64,60.485L 935.889,62.151L 938.597,64.651L 939.847,66.526L 941.097,68.192L 943.18,71.108L 945.263,74.233L 946.721,77.566L 948.387,81.315L 948.804,83.19L 949.637,84.856L 949.637,86.106 L 949.637,86.522 L 950.054,88.189L 950.054,89.022 L 950.47,89.855L 950.887,91.73L 950.887,95.479 L 950.887,97.562 L 951.303,99.229L 951.303,131.723 L 950.887,132.973L 950.887,134.223 L 949.637,135.473L 948.804,136.514L 947.971,136.931L 946.721,137.347L 946.096,136.931L 936.723,137.347L 928.182,136.931L 920.683,136.098L 913.393,134.64L 910.269,134.223L 910.269,165.051 L 916.726,165.468L 923.183,166.301L 930.057,166.718L 944.013,166.718 L 945.679,167.134L 946.721,167.967L 947.138,167.967 L 947.138,168.384 L 947.554,168.384 L 948.804,170.467L 949.221,171.925L 949.221,172.758 L 949.221,176.508 L 949.221,182.548 L 948.387,187.548L 947.554,192.338L 946.096,196.504L 945.263,198.796L 944.43,200.462L 942.347,204.212L 940.264,207.336L 937.139,210.252L 934.223,212.752L 930.474,215.251L 926.516,217.543L 922.766,218.793L 917.976,220.042L 913.393,220.459L 910.269,220.876ZM 839.447,237.123L 847.154,241.289L 854.861,244.83L 863.401,248.163L 872.358,250.246L 881.315,252.537L 891.105,253.787L 901.312,254.203L 910.269,254.203 L 910.269,220.876 L 907.769,220.876 L 902.77,220.876 L 895.063,220.876 L 887.772,220.459L 880.482,219.626L 873.608,217.959L 866.942,216.293L 860.485,213.585L 854.028,210.669L 847.987,207.336L 839.447,237.123ZM 910.269,165.051L 910.269,134.223 L 906.519,133.39L 900.478,131.307L 895.063,128.807L 890.272,126.099L 885.273,122.766L 882.981,121.1L 880.898,119.434L 877.566,115.059L 874.858,110.477L 872.358,105.686L 870.692,100.062L 869.858,94.646L 869.858,88.189 L 869.858,83.606 L 870.275,79.232L 870.692,75.483L 871.941,71.108L 872.775,68.192L 874.441,64.651L 876.316,62.151L 878.399,59.235L 880.898,57.152L 883.398,54.861L 886.106,53.194L 889.439,51.945L 892.771,51.111L 896.729,50.278L 900.478,49.862L 905.269,49.445L 905.686,49.862L 908.602,49.862 L 910.269,49.862 L 910.269,19.033 L 907.769,18.2L 904.020,16.95L 899.645,16.534L 897.146,16.117L 895.479,15.701L 890.688,15.284L 886.106,15.284 L 878.815,15.701L 872.358,16.534L 865.901,18.2L 860.068,20.491L 854.444,23.408L 849.028,26.74L 843.821,31.115L 839.447,35.697L 835.697,40.488L 832.365,45.487L 829.657,51.111L 827.574,56.319L 825.907,62.151L 825.074,65.692L 824.657,68.609L 823.824,75.066L 823.824,81.315 L 824.241,91.73L 825.491,101.52L 826.324,105.686L 827.574,110.477L 831.531,117.976L 835.281,125.683L 840.905,132.973L 843.404,136.098L 846.737,139.014L 850.695,142.347L 854.444,145.055L 858.402,147.554L 862.568,150.054L 867.359,152.553L 871.941,154.428L 882.148,158.594L 887.356,160.26L 892.771,161.51L 898.395,162.968L 904.436,164.218L 910.269,165.051ZM 339.111,343.356L 319.531,338.565L 333.696,361.686L 331.821,364.186L 330.571,365.019L 330.155,365.852L 326.405,370.226L 321.614,374.809L 319.115,377.1L 317.032,379.183L 311.408,383.766L 305.367,388.14L 298.701,392.306L 291.828,396.68L 288.286,399.18L 284.537,400.846L 276.83,405.221L 272.247,406.887L 267.873,408.553L 263.707,409.803L 258.916,411.053L 253.917,412.511L 249.126,413.761L 243.502,415.011L 238.503,415.844L 227.046,416.26L 214.548,416.26 L 206.008,416.26 L 197.884,415.844L 189.761,414.594L 182.054,413.344L 174.555,411.678L 167.264,409.803L 159.974,407.303L 153.1,404.387L 146.226,401.679L 139.977,397.93L 133.103,394.181L 127.063,389.806L 121.23,385.64L 115.606,380.433L 109.982,375.225L 104.983,369.393L 99.359,363.769L 94.36,357.312L 89.569,351.063L 85.403,344.605L 81.445,337.731L 77.696,330.441L 74.155,323.359L 71.655,315.652L 68.739,307.945L 66.448,299.404L 64.365,291.281L 63.115,282.74L 61.865,273.784L 61.032,264.827L 60.615,255.453L 60.615,245.663 L 60.615,235.456 L 61.032,225.25L 62.282,214.835L 63.948,204.628L 65.614,195.255L 67.906,185.465L 70.822,176.091L 73.738,166.718L 77.279,157.761L 81.445,148.804L 85.819,140.264L 90.402,131.723L 95.609,123.6L 101.025,115.059L 107.066,107.352L 113.523,99.645L 119.772,92.146L 126.646,84.856L 133.937,77.982L 141.644,71.525L 149.351,66.109L 157.891,60.485L 166.015,55.694L 175.388,51.528L 184.345,47.779L 193.718,44.238L 203.509,41.321L 213.715,38.822L 223.922,36.947L 234.962,35.281L 246.21,34.448L 257.666,33.614L 263.707,34.031L 266.623,34.448L 269.956,34.448 L 272.664,34.864L 275.58,34.864 L 281.204,35.281L 282.454,35.697L 283.704,35.697 L 286.203,36.114L 291.411,36.947L 295.993,37.78L 300.368,39.238L 304.117,40.488L 308.075,41.738L 315.157,43.821L 316.615,44.654L 317.448,45.071L 317.865,45.071 L 318.282,45.071 L 321.614,46.321L 328.072,48.612L 328.072,141.93 L 243.502,137.347L 288.703,161.927L 407.017,161.927 L 391.603,147.554L 389.937,145.888L 388.27,143.596L 387.437,141.097L 386.395,138.181L 385.562,124.433L 385.562,110.477 L 385.562,39.655 L 305.367,20.908L 293.494,18.617L 281.621,16.534L 258.5,13.618L 247.043,12.784L 236.003,11.951L 213.299,10.493L 198.718,11.326L 185.178,12.368L 178.721,13.618L 172.264,14.034L 159.974,16.117L 147.684,19.033L 141.644,20.491L 136.020,22.158L 125.396,25.907L 119.772,27.574L 114.773,29.865L 109.566,31.948L 104.983,34.448L 95.193,39.655L 90.402,42.571L 86.236,45.487L 78.112,51.528L 69.989,58.402L 66.031,62.151L 62.698,65.692L 55.408,73.191L 49.575,81.315L 43.535,89.855L 37.494,98.395L 32.078,106.936L 27.287,115.059L 22.705,123.6L 18.747,132.14L 14.998,140.68L 11.873,149.221L 8.957,158.177L 6.457,166.718L 4.166,175.675L 2.916,184.631L 1.25,193.588L 0.417,202.545L0,211.502L0,220.459 L0,231.499 L 0.833,242.122L 2.083,252.537L 3.749,262.744L 6.041,272.95L 8.54,282.74L 11.456,292.531L 15.414,301.904L 19.164,311.694L 23.538,320.651L 28.537,329.608L 33.745,338.148L 39.577,346.688L 46.034,355.229L 52.908,363.352L 60.199,371.059L 67.489,379.183L 75.404,386.474L 83.528,393.139L 92.068,399.596L 96.443,402.721L 101.025,405.637L 110.399,410.636L 120.814,415.844L 131.020,420.010L 141.227,423.967L 152.267,427.3L 163.307,430.425L 175.388,432.508L 187.261,434.591L 199.551,435.841L 212.465,436.674L 219.339,437.090L 226.005,437.090 L 237.253,437.090 L 248.293,436.257L 259.333,435.424L 270.373,434.174L 280.788,432.508L 291.411,430.425L 301.618,427.717L 311.824,424.801L 319.115,422.718L 326.405,420.635L 333.071,417.927L 339.528,415.844L 345.152,413.344L 351.193,411.053L 355.775,408.553L 360.983,406.054L 364.316,403.971L 365.982,402.721L 368.065,401.263L 371.606,399.18L 374.522,397.097L 377.439,395.014L 378.063,395.014 L 378.897,394.181L 380.146,393.139L 383.063,391.056L 385.562,388.973L 339.111,343.356ZM 1222.718,377.933L 1222.718,19.45 L 1174.392,19.45 L 1174.392,377.933 L 1222.718,377.933 ZM 765.709,24.657L 679.056,24.657 L 679.056,27.157 L 720.924,27.157 L 720.924,72.358 L 679.056,101.937L 679.056,109.644 L 720.924,80.482L 720.924,209.419 L 679.056,174.008L 679.056,228.999 L 706.968,255.87L 679.056,255.87 L 679.056,257.953 L 765.709,257.953 L 765.709,24.657 ZM 679.056,257.953L 679.056,255.87 L 611.359,255.87 L 611.359,257.953 L 679.056,257.953 ZM 611.359,24.657L 611.359,27.157 L 679.056,27.157 L 679.056,24.657 L 611.359,24.657 ZM 679.056,228.999L 611.359,164.218L 611.359,116.309 L 633.022,134.64L 679.056,101.937L 679.056,109.644 L 637.396,139.014L 679.056,174.008L 679.056,228.999 ZM 611.359,257.953L 611.359,255.87 L 540.954,255.87 L 540.954,257.953 L 611.359,257.953 ZM 540.954,24.657L 540.954,27.157 L 611.359,27.157 L 611.359,24.657 L 540.954,24.657 ZM 611.359,164.218L 609.276,161.927L 540.954,229.832L 540.954,174.425 L 580.531,140.68L 540.954,109.019L 540.954,101.52 L 585.321,136.931L 610.109,115.476L 611.359,116.309L 611.359,164.218 ZM 540.954,257.953L 540.954,255.87 L 514.5,255.87 L 540.954,229.832L 540.954,174.425 L 501.585,208.169L 501.168,77.566L 540.954,109.019L 540.954,101.52 L 501.168,69.858L 501.168,27.157 L 540.954,27.157 L 540.954,24.657 L 453.051,24.657 L 453.051,257.953 L 540.954,257.953 Z" horiz-adv-x="1222.509" />
<glyph unicode="&#x53;" d="M 258.5,424.801Q 258.291,398.555 241.211,374.809T 199.134,342.522Q 190.386,339.398 180.804,338.148Q 175.388,337.523 173.513,338.981T 171.847,346.272Q 171.847,367.518 183.512,388.14Q 204.758,425.217 245.377,435.424Q 254.959,437.924 256.833,436.465T 258.5,424.801ZM0,203.795Q0,258.994 26.871,293.364Q 47.284,319.401 77.696,328.983T 142.060,325.858Q 157.683,319.609 164.765,317.318Q 174.972,313.36 187.261,317.318Q 191.844,318.776 205.175,323.984T 226.421,330.858Q 287.245,345.439 328.905,300.654Q 329.946,300.029 330.571,298.988Q 334.737,293.78 334.737,292.322T 329.321,287.115Q 301.409,265.868 293.077,235.248T 298.285,172.758Q 309.533,144.221 340.361,128.391Q 344.527,126.099 345.36,123.6T 344.736,116.726Q 327.655,70.483 293.494,31.948Q 264.54,0.286
224.755,16.95Q 215.173,20.908 210.174,22.574T 196.843,26.324T 181.221,27.99Q 163.932,27.99 139.144,17.367Q 118.731,8.41 103.108,11.326T 72.488,30.282Q 16.872,88.397 2.5,171.925Q0,188.589 0,203.795Z" horiz-adv-x="345.36" />
<glyph unicode="&#x54;" d="M 157.474,427.717L 185.595,427.717 L 185.595,117.976 Q 185.595,109.644 179.762,103.811T 165.598,97.979L 44.784,97.979 Q 36.452,97.979 30.62,103.811T 24.788,117.976L 24.788,371.893 Q 24.788,380.225 30.62,386.057T 44.784,391.889L 157.474,391.889 L 157.474,427.717 ZM 77.279,134.223L 77.279,154.011 L 52.491,154.011 L 52.491,134.223 L 77.279,134.223 ZM 77.279,169.634L 77.279,189.422 L 52.491,189.422 L 52.491,169.634 L 77.279,169.634 ZM 117.689,134.223L 117.689,154.011 L 92.902,154.011 L 92.902,134.223 L 117.689,134.223 ZM 117.689,169.634L 117.689,189.422 L 92.902,189.422 L 92.902,169.634 L 117.689,169.634 ZM 158.308,134.223L 158.308,154.011 L 133.52,154.011 L 133.52,134.223 L 158.308,134.223 ZM 158.308,169.634L 158.308,189.422 L 133.52,189.422 L 133.52,169.634 L 158.308,169.634 ZM 158.308,217.543L 158.308,351.479 L 52.491,351.479 L 52.491,217.543 L 158.308,217.543 Z" horiz-adv-x="207.675" />
<glyph unicode="&#x55;" d="M 12.29,230.874T 12.29,263.993T 25.204,327.317T 59.99,379.183T 112.065,413.969T 175.388,426.884T 238.711,413.969T 290.578,379.391T 325.364,327.317T 338.278,263.993T 325.364,200.67T 290.786,148.804T 238.711,114.018T 175.388,101.103T 112.065,114.018T 59.99,148.596T 25.204,200.67ZM 256.833,264.41L 175.388,345.439L 94.36,264.41L 155.183,264.41 L 155.183,182.548 L 195.801,182.548 L 195.801,264.41 L 256.833,264.41 Z" horiz-adv-x="348.068" />
<glyph unicode="&#x56;" d="M 404.517,348.355L 354.526,398.347L 199.551,243.58L 132.687,310.444L 82.695,261.077L 199.551,144.013L 404.517,348.355ZM 331.821,235.873L 372.439,275.867Q 375.564,251.704 373.481,228.791T 363.274,184.84T 343.069,145.263T 314.116,111.727T 278.080,86.106T 236.003,69.442T 189.344,63.401Q 151.642,63.401 117.481,77.982T 58.324,117.559T 18.955,176.508T 4.166,248.579T 18.747,320.443T 58.324,379.6T 117.273,418.968T 189.344,433.758Q 222.255,433.758 252.667,422.509T 307.658,391.056L 277.663,361.269Q 239.544,391.473 189.344,391.473Q 150.392,391.473 117.481,372.309T 65.198,320.234T 46.034,248.579Q 46.034,209.627 65.198,176.716T 117.273,124.433T 189.344,105.269Q 226.213,105.269 257.666,122.35T 308.908,169.634T 331.821,235.873Z" horiz-adv-x="460.967" />
<glyph unicode="&#x57;" d="M 296.41,174.841L 262.874,140.68L 200.176,203.795L 137.269,140.68L 103.733,174.841L 166.431,237.539L 103.733,300.238L 137.269,333.982L 200.176,271.284L 262.874,333.982L 296.41,300.238L 233.712,237.539L 296.41,174.841ZM 353.276,240.039Q 353.276,282.324 332.446,317.943T 275.997,374.184T 198.301,395.014T 120.605,374.392T 64.365,317.943T 43.535,240.039Q 43.535,208.586 55.824,180.049T 88.736,130.682T 138.103,97.562T 198.301,85.273T 258.5,97.562T 307.867,130.474T 340.986,179.841T 353.276,240.039ZM 390.353,240.039Q 390.353,201.087 375.147,165.676T 334.321,104.436T 273.081,63.401T 198.301,48.195T 123.73,63.401T 62.49,104.228T 21.663,165.468T 6.457,240.039Q 6.457,279.199 21.455,314.61T 62.282,375.85T 123.522,416.885T 198.301,432.091T 272.872,416.885T 334.112,376.059T 375.147,314.819T 390.353,240.039Z" horiz-adv-x="426.597" />
<glyph unicode="&#x58;" d="M 169.972,437.090T 213.299,437.090T 295.993,420.218T 364.107,374.809T 409.725,306.695T 426.597,223.792T 409.725,141.097T 364.316,72.983T 296.202,27.365T 213.299,10.493T 130.604,27.365T 62.49,72.775T 16.872,140.889T0,223.792T 16.872,306.695T 62.282,374.809T 130.395,420.218ZM 276.413,311.694L 276.413,359.603 L 238.503,359.603 Q 207.883,359.603
193.302,346.48T 178.721,307.111L 178.721,270.451 L 150.184,270.451 L 150.184,223.375 L 178.721,223.375 L 178.721,86.106 L 233.712,86.106 L 233.712,223.792 L 272.247,223.792 L 276.413,270.451L 233.712,270.451 L 233.712,296.488 Q 233.712,305.028 236.212,308.361T 246.627,311.694L 276.413,311.694 Z" horiz-adv-x="426.597" />
<glyph unicode="&#x59;" d="M 169.972,437.090T 213.299,437.090T 295.993,420.218T 364.107,374.809T 409.725,306.695T 426.597,223.792T 409.725,141.097T 364.316,72.983T 296.202,27.365T 213.299,10.493T 130.604,27.365T 62.49,72.775T 16.872,140.889T0,223.792T 16.872,306.695T 62.282,374.809T 130.395,420.218ZM 320.365,260.661Q 334.945,270.659 345.152,286.073Q 332.654,280.657 317.032,278.574Q 332.862,287.531 338.695,305.862Q 323.489,297.113 307.242,293.78Q 292.036,309.611 270.789,309.611Q 247.251,309.611 232.462,290.864T 222.672,248.579Q 192.469,250.037 166.015,263.785T 120.814,300.238Q 111.024,283.574 115.398,264.41T 136.020,234.207Q 123.522,234.832 113.94,240.456Q 113.523,222.959 124.771,209.002T 153.517,191.505Q 141.852,188.172 131.020,190.672Q 135.811,175.675 148.517,166.093T 177.471,156.094Q 145.185,130.89 104.15,135.473Q 138.519,113.393 179.971,113.393Q 206.633,113.393 229.963,121.933T 270.164,145.263T 298.701,178.591T 315.99,218.584T 320.365,260.661Z" horiz-adv-x="426.597" />
<glyph unicode="&#x5a;" d="M 169.972,437.090T 213.299,437.090T 295.993,420.218T 364.107,374.809T 409.725,306.695T 426.597,223.792T 409.725,141.097T 364.316,72.983T 296.202,27.365T 213.299,10.493T 130.604,27.365T 62.49,72.775T 16.872,140.889T0,223.792T 16.872,306.695T 62.282,374.809T 130.395,420.218ZM 241.419,153.386Q 278.288,153.386 301.409,183.382T 324.739,259.203Q 324.739,276.491 317.657,292.531T 298.076,320.859T 267.040,340.439T 227.046,347.938Q 205.8,347.938 187.469,342.106T 156.433,326.692T 134.353,304.404T 120.814,278.366T 116.439,251.704Q 116.439,230.666 124.355,214.835T 148.101,192.338Q 154.142,190.255 155.808,196.088L 159.141,209.002Q 160.182,213.168 157.058,217.543Q 146.851,228.791 146.851,247.746Q 146.851,277.95 167.681,299.613T 222.672,321.484Q 252.876,321.484 269.748,305.237T 286.62,262.327Q 286.62,228.166 273.081,204.42T 238.086,180.465Q 225.588,180.465 218.090,189.214T 213.715,210.252Q 215.382,217.126 218.923,228.791T 224.755,249.413T 227.046,264.827Q 227.046,275.033 221.839,281.491T 206.425,287.948Q 193.927,287.948 185.386,276.491T 176.638,248.163Q 176.638,233.79 181.221,223.375L 161.64,139.43Q 156.433,117.142 161.224,80.898Q 161.224,79.44 162.474,79.232T 164.765,80.065Q 166.64,81.94 171.43,88.189T 183.095,107.144T 192.885,130.474L 203.509,173.175Q 207.883,165.26 218.506,159.427T 241.419,153.386Z" horiz-adv-x="426.597" />
<glyph unicode="&#x5b;" d="M 240.169,418.76Q 138.936,418.76 88.736,403.138Q 65.823,396.055 48.742,376.059T 25.621,329.608Q 10.207,258.161 25.621,185.881Q 31.453,159.844 48.534,140.055T 88.736,112.976Q 110.19,106.311 148.101,102.353L 156.225,101.52L 156.225,93.396 Q 157.474,63.818 124.563,31.531Q 124.146,30.698 122.897,29.448Q 134.561,30.698 152.683,36.947T 182.679,50.278Q 227.046,77.357 248.71,95.479L 250.793,97.562L 254.334,97.562 Q 346.61,99.020 391.603,112.976Q 414.308,120.059 431.388,139.847T 454.301,186.298Q 469.715,257.953 454.301,330.024Q 448.469,356.27 431.388,376.059T 391.186,403.138Q 341.611,418.76 240.169,418.76ZM 118.522,10.493Q 104.983,10.493 101.025,19.45Q 96.859,29.24 111.857,44.238Q 133.312,65.901 137.269,84.856Q 100.817,89.855 83.528,95.063Q 55.408,104.020 34.994,127.557T 7.707,182.132Q-8.957,257.953 7.707,333.982Q 14.373,365.019 34.786,388.557T 83.111,420.635Q 135.811,437.090 240.169,437.090Q 344.319,437.090 396.394,421.051Q 424.514,412.303 444.928,388.765T 472.215,333.982Q 488.879,257.745 472.215,182.548Q 465.549,151.095 445.136,127.557T 396.81,95.479Q 349.526,80.69 257.666,79.232Q 253.292,75.691 249.126,72.358T 239.128,65.276T 230.587,59.235T 220.381,52.57T 211.632,46.945T 201.426,40.28T 192.052,34.448Q 177.679,25.907 154.766,18.2T 118.522,10.493Z" horiz-adv-x="479.922" />
<glyph unicode="&#x5c;" d="M 494.503,266.493L 324.739,437.090L 201.009,437.090 L 370.773,266.493L 201.009,95.896L 324.739,95.896 L 494.503,266.493ZM 124.146,437.090L 293.91,266.493L 124.146,95.896L0,95.896 L 169.764,266.493L0,437.090L 124.146,437.090 Z" horiz-adv-x="526.789" />
<glyph unicode="&#x5d;" d="M 285.37,353.146L 305.367,353.146 L 316.615,404.387L 325.989,353.146L 345.985,353.146 L 365.982,430.841L 346.819,430.841 L 336.612,377.933L 327.238,430.841L 307.658,430.841 L 296.827,377.1L 287.037,430.841L 267.040,430.841 L 285.37,353.146ZM 261.832,368.976L 261.832,353.146 L 212.049,353.146 L 212.049,430.841 L 260.583,430.841 L 260.583,415.011 L 230.796,415.011 L 230.796,400.846 L 258.916,400.846 L 258.916,385.224 L 230.796,385.224 L 230.796,368.976 L 261.832,368.976 ZM 166.431,222.125L 166.431,255.453 L 424.931,255.453 L 424.931,222.125 L 166.431,222.125 ZM 392.436,367.727Q 403.476,367.727 403.476,375.225Q 403.476,378.142 400.976,380.225T 391.603,385.224Q 369.94,392.098 369.94,408.137Q 369.94,418.76 378.063,425.426T 399.727,432.091Q 411.391,432.091 419.307,428.133L 420.14,427.717L 415.974,412.094L 414.724,412.511Q 407.642,416.26 399.31,416.26Q 394.727,416.26 392.020,414.594T 389.103,409.803Q 389.103,406.679
391.811,404.804T 402.643,399.596Q 422.848,392.306 422.848,376.267Q 422.848,366.477 415.141,359.186T 391.603,351.896Q 378.688,351.896 369.523,356.478L 369.107,356.895L 372.856,372.726L 373.689,372.309Q 382.438,367.727 392.436,367.727ZM 166.431,159.011L 166.431,192.338 L 424.931,192.338 L 424.931,159.011 L 166.431,159.011 ZM 151.85,406.054L 151.85,353.146 L 134.353,353.146 L 134.353,430.841 L 155.808,430.841 L 181.221,382.932L 181.221,430.841 L 198.718,430.841 L 198.718,353.146 L 179.554,353.146 L 151.85,406.054ZM 146.226,159.011L 15.831,159.011 L 15.831,255.453 L 146.226,255.453 L 146.226,159.011 ZM 424.931,317.735L 424.931,284.407 L 13.123,284.407 L 13.123,317.735 L 424.931,317.735 ZM 424.931,129.224L 424.931,95.896 L 307.242,95.896 L 307.242,129.224 L 424.931,129.224 ZM 291.828,129.224L 291.828,95.896 L 13.123,95.896 L 13.123,129.224 L 291.828,129.224 ZM 52.075,377.517Q 55.616,375.434 60.199,374.809L 60.199,348.771 Q 46.659,349.813 36.661,356.478L 52.075,377.517ZM 60.199,411.053Q 55.199,410.428 52.075,408.553L 36.661,429.592Q 46.242,436.465 60.199,437.090L 60.199,411.053 ZM 86.236,429.592L 70.822,408.553Q 67.906,410.22 62.698,411.053L 62.698,437.090 Q 76.029,436.465
86.236,429.592ZM 44.784,386.057Q 46.242,381.474 49.992,379.183L 34.578,358.353Q 24.163,365.852 19.997,378.35L 44.784,386.057ZM 49.575,406.887Q 46.034,404.387 44.784,400.013L 19.997,407.72Q 24.163,420.218 34.578,427.717L 49.575,406.887ZM 43.118,393.139Q 43.118,391.889 43.951,388.557L 19.164,380.849Q 17.497,385.849 17.497,393.139Q 17.497,400.013 19.164,405.221L 43.951,397.513Q 43.118,394.181 43.118,393.139ZM 73.321,379.183Q 77.279,383.141 78.112,386.474L 102.9,378.35Q 98.734,365.852 88.319,358.353L 73.321,379.183ZM 62.698,374.809Q 67.489,375.434 70.822,377.517L 86.236,356.478Q 76.654,349.813 62.698,348.771L 62.698,374.809 ZM 103.733,405.637Q 105.4,399.805 105.4,393.139Q 105.4,385.849 103.733,380.849L 78.945,388.973Q 79.779,391.473 79.779,393.139Q 79.779,394.181 78.945,397.513L 103.733,405.637ZM 78.112,400.013Q 76.862,404.387 72.905,406.887L 88.319,427.717Q 98.317,421.051 102.9,408.137L 78.112,400.013Z" horiz-adv-x="452.843" />
<glyph unicode="&#x5e;" d="M 167.681,149.221Q 185.803,137.764 206.841,136.514L 206.841,10.493 Q 143.727,12.784 93.526,47.362L 167.681,149.221ZM 206.425,311.277Q 184.137,309.194 167.264,298.571L 92.902,400.013Q 144.976,435.216 206.425,437.090L 206.425,311.277 ZM 333.071,400.43L 259.333,298.571Q 241.419,310.028 219.756,311.277L 219.756,437.090 Q 282.662,435.216 333.071,400.43ZM 132.27,190.672Q 140.81,170.259 157.058,156.928L 82.695,54.861Q 33.745,93.605 12.29,151.303L 132.27,190.672ZM 156.641,290.864Q 139.561,276.075 132.27,257.12L 12.29,296.072Q 33.953,354.812 82.695,392.306L 156.641,290.864ZM 125.813,223.792Q 125.813,213.377 128.312,202.962L 8.54,164.218Q0,192.755 0,223.792Q0,254.412 8.54,283.574L 127.896,244.413Q 125.813,233.582 125.813,223.792ZM 269.956,156.928Q 286.62,171.3 294.744,190.672L 414.308,151.72Q 393.686,94.229 344.319,55.277L 269.956,156.928ZM 220.172,136.514Q 242.252,138.389 259.749,149.221L 333.696,47.779Q 282.454,12.576 220.172,10.493L 220.172,136.514 ZM 418.474,283.574Q 426.597,256.495 426.597,223.792Q 426.597,191.922 418.474,164.218L 298.701,203.378Q 301.201,212.96 301.201,223.792T 298.701,244.83L 418.474,283.574ZM 294.327,257.12Q 287.037,276.908 269.956,290.864L 343.902,392.723Q 392.644,355.229 414.308,296.488L 294.327,257.12Z" horiz-adv-x="426.597" />
<glyph unicode="&#x5f;" d="M 169.972,437.090T 213.299,437.090T 295.993,420.218T 364.107,374.809T 409.725,306.695T 426.597,223.792T 409.725,141.097T 364.316,72.983T 296.202,27.365T 213.299,10.493T 130.604,27.365T 62.49,72.775T 16.872,140.889T0,223.792T 16.872,306.695T 62.282,374.809T 130.395,420.218ZM 156.641,120.683L 156.641,272.117 L 109.566,272.117 L 109.566,120.683 L 156.641,120.683 ZM 121.23,291.697T 132.687,291.697T 152.267,299.821T 160.391,319.818Q 160.391,331.274 152.267,339.398T 132.687,347.522T 113.107,339.398T 104.983,319.818Q 104.983,308.153 113.107,300.029ZM 331.821,120.683L 331.821,216.71 Q 331.821,246.080 316.823,261.286T 276.83,276.7Q 275.58,276.7 273.289,276.7T 264.749,275.242T 253.084,271.492T 241.419,263.993T 231.212,251.704L 231.212,272.117 L 186.428,272.117 L 186.428,120.683 L 231.212,120.683 L 231.212,200.046 Q 231.212,216.293 238.503,225.25T 259.749,234.207Q 272.456,234.207
278.913,225.458T 285.37,200.046L 285.37,120.683 L 331.821,120.683 Z" horiz-adv-x="426.597" />
<glyph unicode="&#x60;" d="M 211.632,274.617Q 209.341,293.155 198.718,306.070T 174.138,319.401Q 160.182,319.818 152.267,307.528T 146.851,277.116Q 148.934,259.203 160.182,247.538T 186.011,235.456Q 199.967,235.040 207.050,245.663T 211.632,274.617ZM 344.319,280.241L 344.319,296.072 L 312.241,296.072 L 312.241,327.525 L 296.41,327.525 L 296.41,296.072 L 264.957,296.072 L 264.957,280.241 L 296.41,280.241 L 296.41,248.163 L 312.241,248.163 L 312.241,280.241 L 344.319,280.241 ZM 254.75,148.804Q 254.75,163.593 248.293,174.425T 225.588,197.338Q 213.715,206.086 209.341,211.919T 206.633,224.417T 219.339,239.206Q 239.336,254.828 239.336,275.867Q 239.336,288.365 234.337,298.779T 219.756,314.819L 238.086,314.819 L 253.5,330.441L 184.762,330.441 Q 153.933,330.441 137.478,315.027T 120.814,276.7T 135.811,239.622T 179.138,225.25Q 174.763,216.085 176.43,207.961T 185.595,194.005Q 166.431,194.005 151.85,190.88T 128.729,182.548T 114.565,170.259T 107.274,156.511T 105.4,142.347Q 105.4,121.308 126.438,108.81T 178.304,96.312Q 197.884,96.312 213.090,101.103T 237.045,113.81T 250.376,130.474T 254.75,148.804ZM 426.597,267.118T 426.597,223.792T 409.725,141.097T 364.316,72.983T 296.202,27.365T 213.299,10.493T 130.604,27.365T 62.49,72.775T 16.872,140.889T0,223.792T 16.872,306.695T 62.282,374.809T 130.395,420.218T 213.299,437.090T 295.993,420.218T 364.107,374.809T 409.725,306.695ZM 230.796,146.721Q 230.796,130.057 217.465,119.642T 178.721,109.019Q 158.308,109.019 144.768,120.267T 131.020,147.554Q 131.020,162.968 146.226,174.216T 182.054,185.465Q 203.925,185.465 217.256,174.008T 230.796,146.721Z" horiz-adv-x="426.597" />
<glyph unicode="&#x61;" d="M 169.972,437.090T 213.299,437.090T 295.993,420.218T 364.107,374.809T 409.725,306.695T 426.597,223.792T 409.725,141.097T 364.316,72.983T 296.202,27.365T 213.299,10.493T 130.604,27.365T 62.49,72.775T 16.872,140.889T0,223.792T 16.872,306.695T 62.282,374.809T 130.395,420.218ZM 131.229,119.85T 144.143,119.85T 166.015,128.807T 174.972,150.47Q 174.972,163.385 166.015,172.342T 144.143,181.299Q 131.437,181.299 122.48,172.342T 113.523,150.47T 122.272,128.807ZM 217.465,119.85L 263.29,119.85 Q 263.082,150.262 251.209,177.758T 219.131,225.25T 171.43,257.12T 113.523,269.618L 113.523,223.792 Q 141.644,223.375 165.598,209.419T 203.509,171.717T 217.465,119.85ZM 294.744,119.85L 339.945,119.85 Q 339.945,150.679 331.821,180.049T 309.116,234.207T 273.705,279.824T 227.88,315.443T 173.722,338.356T 113.523,346.688L 113.523,301.071 Q 149.559,301.071 182.47,287.323T 241.419,247.746Q 267.040,222.125 280.579,189.214T 294.744,119.85Z" horiz-adv-x="426.597" />
<glyph unicode="&#x62;" d="M 295.993,310.861Q 332.238,310.861 357.65,285.448T 383.063,223.792Q 383.063,187.756 357.65,162.343T 295.993,136.931Q 272.456,136.931 252.876,147.971Q 246.835,151.303 239.753,151.095T 226.421,147.138L 136.020,89.439Q 124.771,81.731 124.146,69.025Q 122.897,44.446 104.983,27.574T 62.282,10.493Q 36.452,10.493 18.33,28.615T0,72.775Q0,85.689 4.791,97.146T 18.122,116.726T 37.494,129.64T 60.615,134.848T 84.986,130.474Q 97.068,125.683 107.899,132.973L 186.845,183.382Q 197.26,189.839 203.092,200.67T 208.508,223.375Q 208.508,236.29 202.675,247.121T 186.011,264.827L 107.899,314.819Q 97.068,322.109 84.986,317.318Q 72.697,312.944 60.615,312.944T 37.494,317.943T 18.122,331.066T 4.999,350.438T0,374.809Q0,400.846 18.122,418.968T 62.282,437.090Q 87.069,437.090 104.983,420.218T 124.146,378.766Q 124.771,365.435 136.020,358.353L 226.421,300.654Q 232.462,296.697 239.544,296.488T 252.876,299.821Q 272.456,310.861 295.993,310.861Z" horiz-adv-x="383.063" />
<glyph unicode="&#x63;" d="M 2010.090,243.164Q 2011.548,266.701 2003.841,285.448T 1981.344,316.693T 1946.35,336.69T 1902.607,346.897T 1853.657,347.522Q 1839.284,346.48 1823.662,342.939T 1790.334,331.066T 1759.089,311.694T 1736.384,282.532T 1727.219,243.164Q 1727.219,206.919 1748.257,181.715T 1805.331,145.679T 1887.609,139.014Q 1913.439,141.305 1933.227,147.138T 1966.347,162.552T 1988.635,182.757T 2003.632,208.169Q 2005.924,212.96 2007.59,221.709T 2009.673,236.706L 2010.090,243.164ZM 2073.621,255.037Q 2075.912,224 2060.081,195.671T 2015.505,146.513T 1946.35,113.393T 1861.155,101.103Q 1818.871,101.103 1785.751,109.227T 1717.429,140.264Q 1685.351,161.718 1670.353,182.757T 1651.814,237.539Q 1648.273,267.743 1664.104,295.447T 1709.93,343.356T 1784.293,375.85T 1879.069,387.723Q 1923.437,387.307 1958.848,378.558T 2023.004,347.522Q 2047.583,328.358 2057.373,308.986T 2072.371,261.494L 2073.621,255.037ZM 2131.736,67.359L 2106.116,69.442L 2105.699,124.849L 2138.194,120.683L 2167.147,119.434L 2159.024,65.276L 2131.736,67.359ZM 2164.648,165.051L 2116.739,169.634Q 2120.072,197.129 2119.447,285.657T 2117.155,398.347L 2114.656,437.090Q 2119.447,436.257 2123.404,435.841T 2131.736,434.799T 2150.275,433.133T 2182.145,430.008Q 2196.101,428.55 2206.724,427.3T 2222.138,425.217T 2231.512,424.384L 2216.931,378.35Q 2210.265,356.687 2187.977,262.327T 2164.648,165.051ZM 1567.662,212.335Q 1568.495,234.207 1562.246,250.662T 1544.749,277.533T 1516.628,293.78T 1480.592,301.487T 1438.516,301.487Q 1429.559,300.862 1419.977,299.404T 1398.731,294.405T 1376.651,286.282T 1356.029,274.408T 1338.532,258.578T 1326.659,237.956T 1322.076,212.335Q 1322.076,180.465 1340.199,157.761T 1390.19,125.266T 1461.845,119.017Q 1507.046,122.558 1532.667,138.181T 1564.745,178.591L 1567.662,212.335ZM 1626.61,218.793Q 1627.652,192.338 1619.111,170.467T 1593.907,132.557T 1553.914,105.894T 1502.255,89.855T 1441.849,84.439Q 1357.696,84.439 1297.289,120.267Q 1272.501,135.264 1263.961,155.261T 1255.421,205.045Q 1255.421,231.915 1269.793,255.87T 1309.579,297.946T 1372.902,326.275T 1454.763,336.482Q 1493.924,336.065 1524.752,328.566T 1580.576,301.487Q 1603.906,283.365 1612.029,270.867T 1623.694,237.123L 1626.61,218.793ZM 1247.297,95.896Q 1240.215,96.312 1213.136,96.312T 1168.352,95.896Q 1158.77,95.479 1126.275,96.312T 1083.157,96.729L 1081.491,122.766Q 1083.365,122.975 1110.861,125.058T 1143.772,127.974Q 1146.48,140.472 1145.439,178.591L 1144.189,209.419Q 1128.15,209.419 1046.288,205.67T 958.177,200.879L 947.138,199.212Q 947.138,154.845 952.137,128.807Q 959.219,127.349 987.339,125.058T 1019.209,121.933L 1018.376,93.396Q 1013.585,93.813 994.005,93.813T 948.804,93.605T 917.142,93.396Q 909.435,93.396 884.023,93.605T 839.655,93.813T 814.034,93.396L 816.117,122.766Q 854.028,125.474 881.731,129.224Q 883.814,153.178 883.814,210.252L 883.814,248.996 Q 883.814,293.989 882.565,313.985Q 875.899,315.235 851.32,316.902T 815.284,318.985L 812.993,341.273Q 816.534,341.064 834.864,341.273T 877.566,342.106T 915.476,342.522Q 924.849,342.522 952.762,342.314T 999.629,342.106T 1022.125,342.522L 1020.042,318.985Q 1008.586,318.568 982.965,316.485T 951.303,312.944Q 950.679,309.819 950.262,306.695T 949.637,298.571T 949.012,289.406T 948.179,275.242T 947.138,257.12L 945.679,238.789Q 980.882,238.789 1055.662,239.831T 1143.772,242.747L 1143.772,267.743 Q 1143.772,280.033 1144.814,300.029T 1146.272,327.733T 1145.022,344.605Q 1139.19,346.48 1114.61,349.813T 1079.199,353.979L 1081.074,377.517Q 1082.949,377.308 1162.103,376.267Q 1241.048,374.809 1251.255,376.267L 1249.172,356.895Q 1239.173,356.062 1196.68,345.439Q 1195.222,336.482 1195.014,324.4T 1195.222,304.195L 1195.847,296.488Q 1197.513,272.117 1198.347,224.625Q 1198.555,210.877 1198.972,194.838T 1200.013,168.176T 1200.638,147.971T 1200.638,133.181T 1199.596,127.557Q 1198.138,126.308 1206.679,124.849Q 1208.345,124.641 1241.048,121.517Q 1242.714,121.308 1243.964,121.1L 1247.714,113.81L 1247.297,95.896ZM 659.893,244.83L 659.059,249.413Q 654.060,237.539 645.312,217.751T 629.897,182.965T 621.566,163.385L 689.888,163.385 Q 682.389,182.34 659.893,244.83ZM 841.321,24.241Q 836.531,25.074 761.126,25.074Q 755.085,25.074 719.675,25.282T 679.056,25.491L 682.181,51.111Q 689.888,51.528 709.468,54.861T 733.422,58.819Q 727.798,72.358 713.634,103.186T 695.303,141.513Q 680.723,141.513 652.186,140.264T 613.858,137.347Q 613.442,136.723 609.068,131.307T 600.736,120.059T 592.82,105.061T 587.404,86.522Q 615.733,80.482 627.19,79.232L 622.815,52.778Q 616.983,52.986 587.613,52.778T 552.827,52.778Q 543.245,53.194 517.416,52.778T 485.546,51.111L 494.086,79.232Q 500.752,80.065 520.124,85.064T 540.12,90.272Q 549.702,104.020 585.321,172.133T 628.023,255.453Q 624.273,256.286 611.775,260.869T 593.862,266.076L 592.612,285.24Q 601.36,284.615 632.814,283.782T 668.849,283.157Q 675.932,283.574 708.218,283.782T 746.545,284.407L 742.379,265.66Q 737.588,265.243 730.714,263.785T 716.133,260.244T 705.094,257.536Q 714.050,230.666 744.046,161.51Q 745.92,157.344 753.002,139.847T 765.084,111.102T 777.165,84.648T 790.496,59.235Q 793.204,58.819 813.826,54.028T 842.155,48.612L 842.571,41.738L 841.321,24.241ZM 613.858,327.941Q 606.151,327.317 580.739,322.109T 541.787,313.36Q 533.247,311.486 492.003,280.657T 410.142,213.585T 364.732,164.218Q 362.233,154.636 361.4,124.433L 360.15,101.52Q 359.733,94.229 360.566,84.648T 364.107,59.86T 366.815,44.238Q 371.814,43.196 413.266,42.988T 461.592,41.738L 460.342,12.368Q 453.676,12.784 304.117,12.784Q 295.16,12.784 238.503,11.535T 166.848,10.493L 171.847,38.822Q 173.305,39.030 195.593,39.030T 235.17,41.321T 258.083,49.862Q 259.541,51.32 260.374,52.778T 262.041,56.736T 262.874,61.318T 263.082,68.192T 263.29,76.732T 263.082,88.605T 262.874,103.603L 262.874,122.35 Q 262.874,147.554 260.583,163.385Q 257.875,171.3 222.464,217.126T 145.393,311.277T 88.319,371.893Q 83.111,373.351 45.618,378.142T 0.833,384.599L0,409.803Q 3.333,411.469 25.829,411.469T 78.321,411.053T 143.727,411.678Q 177.263,412.928 233.712,412.094T 300.368,409.803L 297.243,387.723Q 290.994,386.057 251.834,383.557T 203.925,378.766Q 228.504,342.314 278.705,277.116T 336.612,200.879Q 339.945,205.461 353.484,216.918T 384.104,242.122T 417.64,270.034T 445.969,296.905T 458.675,316.902Q 445.761,319.401 415.349,323.567T 378.48,327.941L 373.273,356.895Q 379.938,357.937 403.268,357.937T 460.133,357.52T 506.376,356.895Q 612.192,356.895 632.605,355.229L 613.858,327.941Z" horiz-adv-x="2231.512" />
<glyph unicode="&#x64;" d="M 1110.028,343.772L 1112.111,341.689L 1113.777,338.565L 1115.652,335.648L 1117.318,332.732L 1117.318,309.194 L 1115.652,306.278L 1113.777,303.154L 1112.111,300.654L 1110.028,298.155L 1107.528,296.072L 1104.82,294.197L 1101.904,292.947L 1100.654,292.531L 1099.404,291.697L 1095.863,290.864L 1092.531,290.031L 1089.198,289.614L 1085.657,289.198L 1081.907,289.614L 1078.783,290.031L 1075.867,290.448L 1072.95,291.697L 1070.242,292.947L 1067.326,294.197L 1065.243,296.072L 1063.16,298.155L 1063.16,298.571 L 1060.452,301.071L 1058.786,303.154L 1057.12,305.862L 1055.87,308.778L 1055.037,311.694L 1054.203,314.402L 1053.787,317.735L 1053.787,320.651 L 1053.787,324.609 L 1054.203,327.941L 1055.037,330.858L 1055.87,333.982L 1058.786,338.981L 1060.452,341.689L 1063.16,343.772L 1067.743,347.522L 1070.242,349.396L 1073.367,350.646L 1079.199,352.312L 1082.74,352.312 L 1086.49,352.312 L 1089.614,352.312 L 1092.947,352.312 L 1096.28,351.479L 1099.404,350.646L 1102.321,349.396L 1104.82,347.522L 1107.528,345.855L 1110.028,343.772ZM 1115.652,256.703L 1115.652,19.45 L 1061.286,19.45 L 1061.286,256.703 L 1115.652,256.703 ZM 839.447,237.123L 847.154,241.289L 854.861,244.83L 863.401,248.163L 872.358,250.246L 881.315,252.537L 891.105,253.787L 901.312,254.203L 912.143,254.203 L 922.35,254.203 L 927.349,253.787L 932.14,252.954L 936.306,252.537L 941.097,251.079L 944.846,249.829L 949.637,248.579L 956.928,245.247L 960.677,243.58L 964.010,241.289L 967.134,239.206L 970.467,236.29L 973.592,233.79L 976.508,230.666L 978.591,228.166L 981.090,224.625L 982.965,221.292L 985.048,217.543L 986.714,213.585L 988.797,209.836L 990.047,205.461L 991.922,201.295L 992.755,196.504L 994.005,191.922L 994.421,186.714L 995.671,181.715L 996.088,176.091L 996.504,170.467L 996.504,165.051 L 996.921,158.594L 996.921,73.191 L 996.921,65.692 L 996.921,57.985 L 996.921,50.695 L 997.338,43.821L 997.754,37.78L 998.171,31.531L 998.587,25.907L 999.421,20.908L 958.177,20.908 L 954.636,42.155L 953.803,44.238L 953.386,45.904L 951.303,46.737L 949.637,46.737 L 948.804,46.737 L 947.138,46.737 L 946.096,46.321L 944.846,45.904L 944.43,44.654L 941.93,41.321L 939.014,37.78L 935.889,34.864L 932.973,31.948L 929.64,29.448L 927.766,28.407L 926.516,27.157L 923.183,24.657L 919.642,22.574L 917.559,22.158L 915.893,21.325L 912.143,19.45L 907.769,18.2L 904.020,16.95L 899.645,16.534L 897.146,16.117L 895.479,15.701L 890.688,15.284L 886.106,15.284 L 878.815,15.701L 872.358,16.534L 865.901,18.2L 860.068,20.491L 854.444,23.408L 849.028,26.74L 843.821,31.115L 839.447,35.697L 835.697,40.488L 832.365,45.487L 829.657,51.111L 827.574,56.319L 825.491,62.151L 825.074,65.692L 824.657,68.609L 823.824,75.066L 823.824,81.315 L 824.241,91.73L 825.491,101.52L 826.324,105.686L 827.574,110.477L 831.531,117.976L 835.281,125.683L 840.905,132.973L 843.404,136.098L 846.737,139.43L 850.278,142.347L 854.444,145.055L 858.402,147.554L 862.568,150.054L 867.359,152.553L 871.941,154.428L 882.148,158.594L 887.356,160.26L 892.771,161.51L 898.395,162.968L 904.436,164.218L 910.269,165.051L 916.726,165.468L 923.183,166.301L 930.057,166.718L 944.013,166.718 L 945.679,167.134L 946.721,167.967L 947.138,167.967 L 947.138,168.384 L 947.554,168.384 L 948.804,170.467L 949.221,171.925L 949.221,172.758 L 949.221,176.508 L 949.221,182.548 L 948.387,187.548L 947.554,192.338L 946.096,196.504L 945.263,198.796L 944.43,200.462L 942.347,204.212L 940.264,207.336L 937.139,210.252L 934.223,212.752L 930.474,215.251L 926.516,217.543L 922.766,218.793L 917.976,220.042L 913.393,220.459L 907.769,220.876L 902.77,220.876 L 895.063,220.876 L 887.772,220.459L 880.482,219.209L 873.608,217.959L 866.942,216.293L 860.485,213.585L 854.028,210.669L 847.987,207.336L 839.447,237.123ZM 890.272,126.099L 885.273,122.766L 882.981,121.1L 880.898,119.434L 877.566,115.059L 874.858,110.477L 872.358,105.686L 870.692,100.062L 869.858,94.646L 869.858,88.189 L 869.858,83.606 L 870.275,79.232L 870.692,75.483L 871.941,71.108L 872.775,68.192L 874.441,64.651L 876.316,62.151L 878.399,59.235L 880.898,57.152L 883.398,54.861L 886.106,53.194L 889.439,51.945L 892.771,51.111L 896.729,50.278L 900.478,49.862L 905.269,49.445L 905.686,49.862L 906.936,49.862 L 908.602,49.862 L 912.56,50.278L 915.893,51.111L 919.642,51.945L 923.183,53.194L 923.6,54.028L 924.849,54.444L 926.516,54.861L 930.057,57.152L 933.39,59.235L 934.64,60.485L 935.889,62.151L 938.597,64.651L 939.847,66.526L 941.097,68.192L 943.18,71.108L 944.846,74.233L 946.721,77.566L 948.387,81.315L 948.804,83.19L 949.637,84.856L 949.637,86.106 L 949.637,86.522 L 950.054,88.189L 950.054,89.022 L 950.47,89.855L 950.887,91.73L 950.887,95.479 L 950.887,97.562 L 951.303,99.229L 951.303,131.723 L 950.887,132.973L 950.887,134.223 L 949.637,135.473L 948.804,136.514L 947.971,136.931L 946.721,137.347L 946.096,136.931L 936.723,137.347L 928.182,136.931L 920.267,136.098L 913.393,134.64L 906.519,133.39L 900.478,131.307L 895.063,128.807L 890.272,126.099ZM 765.709,24.657L 453.051,24.657 L 453.051,257.953 L 765.709,257.953 L 765.709,24.657 ZM 720.924,72.358L 632.189,135.056L 610.109,115.476L 585.321,136.931L 503.043,70.275L 501.585,69.858L 501.168,69.858 L 501.168,27.157 L 720.924,27.157 L 720.924,72.358 ZM 720.924,80.482L 720.924,211.919 L 636.98,139.43L 720.924,80.482ZM 706.968,255.87L 514.5,255.87 L 609.276,161.927L 610.109,162.968L 610.942,163.385L 611.775,164.218L 613.025,165.051L 614.275,166.301L 617.191,168.801L 619.066,170.467L 621.149,172.342L 623.232,174.425L 625.315,176.508L 630.522,181.299L 633.439,183.798L 636.563,186.298L 639.479,189.839L 642.812,192.755L 650.103,199.629L 657.81,207.336L 661.559,211.502L 666.35,215.668L 670.516,220.042L 675.307,224.625L 680.098,229.416L 685.097,234.623L 690.304,239.622L 695.72,244.83L 706.968,255.87ZM 580.531,140.68L 501.585,208.169L 501.168,77.566L 580.531,140.68ZM 339.111,343.356L 319.531,338.565L 333.696,361.686L 331.821,364.186L 330.571,365.019L 330.155,365.852L 326.405,370.226L 321.614,374.809L 319.115,377.1L 317.032,379.183L 311.408,383.766L 305.367,388.14L 298.701,392.306L 291.828,396.68L 288.286,399.18L 284.537,400.846L 276.413,405.221L 272.247,406.887L 267.873,408.553L 263.707,409.803L 258.916,411.053L 253.917,412.511L 249.126,413.761L 243.502,415.011L 238.503,415.844L 227.046,416.26L 214.548,416.26 L 206.008,416.26 L 197.884,415.844L 189.761,414.594L 182.054,413.344L 174.555,411.678L 167.264,409.803L 159.974,407.303L 153.1,404.387L 146.226,401.679L 139.977,397.93L 133.103,394.181L 127.063,389.806L 121.23,385.64L 115.606,380.433L 109.982,375.225L 104.983,369.393L 99.359,363.769L 94.36,357.312L 89.569,351.063L 85.403,344.605L 81.445,337.731L 77.696,330.441L 74.155,323.359L 71.655,315.652L 68.739,307.945L 66.448,299.404L 64.365,291.281L 63.115,282.74L 61.865,273.784L 61.032,264.827L 60.615,255.453L 60.615,245.663 L 60.615,235.456 L 61.032,225.25L 62.282,214.835L 63.948,204.628L 65.614,195.255L 67.906,185.465L 70.822,176.091L 73.738,166.718L 77.279,157.761L 81.445,148.804L 85.819,140.264L 90.402,131.723L 95.609,123.6L 101.025,115.059L 107.066,107.352L 113.523,99.645L 119.772,92.146L 126.646,84.856L 133.937,77.982L 141.644,71.525L 149.351,66.109L 157.891,60.485L 166.015,55.694L 175.388,51.528L 184.345,47.779L 193.718,44.238L 203.509,41.321L 213.715,38.822L 223.922,36.947L 234.962,35.281L 246.21,34.448L 257.666,33.614L 263.707,34.031L 266.623,34.448L 269.956,34.448 L 272.664,34.864L 275.58,34.864 L 281.204,35.281L 282.454,35.697L 282.871,35.697 L 283.704,35.697 L 286.203,36.114L 291.411,36.947L 295.993,37.78L 300.368,39.238L 304.117,40.488L 308.075,41.738L 315.157,43.821L 316.615,44.654L 317.448,45.071L 317.865,45.071 L 318.282,45.071 L 321.614,46.321L 328.072,48.612L 328.072,141.93 L 243.502,137.347L 288.703,161.927L 407.017,161.927 L 391.603,147.554L 389.937,145.888L 388.27,143.596L 387.437,141.097L 386.395,138.181L 385.562,124.433L 385.562,110.477 L 385.562,39.655 L 305.367,20.908L 293.494,18.617L 281.621,16.534L 258.5,13.618L 247.043,12.784L 236.003,11.951L 213.299,10.493L 198.718,11.326L 185.178,12.368L 178.721,13.618L 172.264,14.034L 159.974,16.117L 147.684,19.033L 141.644,20.491L 136.020,22.158L 125.396,25.907L 119.772,27.574L 114.773,29.865L 109.566,31.948L 104.983,34.448L 95.193,39.655L 90.402,42.571L 86.236,45.487L 78.112,51.528L 69.989,58.402L 66.031,62.151L 62.698,65.692L 55.408,73.191L 49.575,81.315L 43.535,89.855L 37.494,98.395L 32.078,106.936L 27.287,115.059L 22.705,123.6L 18.747,132.14L 14.998,140.68L 11.873,149.221L 8.957,158.177L 6.457,166.718L 4.166,175.675L 2.916,184.631L 1.25,193.588L 0.417,202.545L0,211.502L0,220.459 L0,231.499 L 0.833,242.122L 2.083,252.537L 3.749,262.744L 6.041,272.95L 8.54,282.74L 11.456,292.531L 15.414,301.904L 19.164,311.694L 23.538,320.651L 28.537,329.608L 33.745,338.148L 39.577,346.688L 46.034,355.229L 52.908,363.352L 60.199,371.059L 67.489,379.183L 75.404,386.474L 83.528,393.139L 92.068,399.596L 96.443,402.721L 101.025,405.637L 110.399,410.636L 120.814,415.844L 131.020,420.010L 141.227,423.967L 152.267,427.3L 163.307,430.425L 175.388,432.508L 187.261,434.591L 199.551,435.841L 212.465,436.674L 219.339,437.090L 226.005,437.090 L 237.253,437.090 L 248.293,436.257L 259.333,435.424L 270.373,434.174L 280.788,432.508L 291.411,430.425L 301.618,427.717L 311.408,424.801L 319.115,422.718L 326.405,420.635L 333.071,417.927L 339.528,415.844L 345.152,413.344L 351.193,411.053L 355.775,408.553L 360.983,406.054L 364.316,403.971L 365.982,402.721L 368.065,401.263L 371.19,399.18L 374.522,397.097L 377.439,395.014L 378.063,395.014 L 378.897,394.181L 380.146,393.139L 383.063,391.056L 385.562,388.973L 339.111,343.356ZM 1222.718,377.933L 1222.718,19.45 L 1174.392,19.45 L 1174.392,377.933 L 1222.718,377.933 Z" horiz-adv-x="1222.509" />
<glyph unicode="&#x67;" d="M 512,192.496l0,64 l-76.496,31.872c-2.128,6-4.368,11.808-7.12,17.504l 30.88,76.88L 414,428
		l-76.192-31.376c-5.808,2.816-11.744,5.184-17.872,7.376L 287.504,480l-64,0 l-31.632-75.744c-6.368-2.256-12.496-4.624-18.56-7.504l-76.064,30.56
		L 52,382.064l 31.008-75.376C 80,300.496, 77.568,294.192, 75.248,287.68L0,255.504l0-64 l 75.312-31.376c 2.32-6.496, 4.816-12.816, 7.808-19.008
		l-30.432-75.872l 45.248-45.248l 75.568,31.12c 6.064-2.88, 12.256-5.184, 18.624-7.376L 224.496-32l 64,0 l 31.68,76.128
		c 6.064,2.256, 12.064,4.624, 17.808,7.376l 76.752-30.752l 45.248,45.248l-31.504,76.368c 2.688,5.744, 4.88,11.568, 7.008,17.504L 512,192.496z
		 M 255.504,128c-52.992,0-96,43.008-96,96s 43.008,96, 96,96s 96-43.008, 96-96S 308.496,128, 255.504,128z"  />
<glyph unicode="&#x68;" d="M 224,160l-48,0 l0,0.976 C 170.72,160.432, 165.424,160, 160,160C 71.648,160,0,231.632,0,320
	C0,408.368, 71.648,480, 160,480s 160-71.632, 160-160l0-64 l 16,0 l0-16 l 16,0 l0-16 l 16,0 l0-16 l 16,0 l0-16 l 16,0 l0-16 l 16,0 l0-16 l 16,0 l0-16 l 16,0 l0-16 l 16,0 l0-16 l 16,0 l0-16 l 16,0 l0-16 l 16,0 l0-32 l0-64 c0-8.848-7.152-16-16-16l-64,0 
	c-8.848,0-16,7.152-16,16l0,64 l-16,0 l-16,0 l-48,0 c-8.832,0-16,7.152-16,16l0,64 l-64,0 l-16,0  M 128,416C 92.656,416, 64,387.344, 64,352s 28.656-64, 64-64s 64,28.656, 64,64S 163.344,416, 128,416z"  />
<glyph unicode="&#x69;" d="M 311.413,128.632c-11.055,1.759-11.307,32.157-11.307,32.157s 32.484,32.158, 39.564,75.401
	c 19.045,0, 30.809,45.973, 11.761,62.148C 352.226,315.365, 375.911,432, 256,432c-119.911,0-96.225-116.635-95.432-133.662
	c-19.047-16.175-7.285-62.148, 11.761-62.148c 7.079-43.243, 39.564-75.401, 39.564-75.401s-0.252-30.398-11.307-32.157
	C 164.976,122.966, 32,64.315, 32,0l 224,0 l 224,0 C 480,64.315, 347.024,122.966, 311.413,128.632z"  />
<glyph unicode="&#x6a;" d="M 400,416L 112,416 c-26.51,0-48-21.49-48-48l0-16 l 384,0 l0,16 C 448,394.51, 426.51,416, 400,416zM 316.16,448l 7.058-50.5L 188.782,397.5 l 7.057,50.5L 316.16,448  M 320,480L 192,480 c-13.2,0-25.495-10.696-27.321-23.769l-9.357-66.962
	C 153.495,376.196, 162.8,365.5, 176,365.5l 160,0 c 13.2,0, 22.505,10.696, 20.679,23.769l-9.357,66.962C 345.495,469.304, 333.2,480, 320,480L 320,480z
	M 408,320L 104,320 c-17.6,0-30.696-14.341-29.103-31.869l 26.206-288.263C 102.696-17.659, 118.4-32, 136-32l 240,0 
	c 17.6,0, 33.304,14.341, 34.897,31.868l 26.205,288.263C 438.696,305.659, 425.6,320, 408,320z M 192,32l-48,0 l-16,224l 64,0 L 192,32 z M 288,32l-64,0 
	L 224,256 l 64,0 L 288,32 z M 368,32l-48,0 L 320,256 l 64,0 L 368,32z"  />
<glyph unicode="&#x6b;" d="M 480,480L 256,416L 32,480c0,0-2.25-25.849,0-64l 224-70.045L 480,416C 482.249,454.151, 480,480, 480,480zM 36.095,382.447C 48.088,257.099, 92.84,46.33, 256-32c 163.16,78.33, 207.912,289.099, 219.905,414.447L 256,299.768
		L 36.095,382.447z"  />
<glyph unicode="&#x6c;" d="M 322.128,480C 217.504,480, 132.368,394.88, 132.368,290.192c0-25.056, 5.12-48.816, 13.936-70.688L0,73.184L 105.12-32l 146.368,146.432
	c 21.872-8.88, 45.632-14, 70.624-14c 104.688,0, 189.872,85.12, 189.872,189.728C 512,394.88, 426.816,480, 322.128,480z M 322.128,164.368
	c-69.312,0-125.808,56.496-125.808,125.792c0,69.376, 56.496,125.872, 125.808,125.872c 69.44,0, 125.936-56.496, 125.936-125.872
	C 448.064,220.88, 391.568,164.368, 322.128,164.368z"  />
<glyph unicode="&#x6d;" d="M 510.752,200.816l-64,256C 442.864,470.464, 430.224,480, 416,480L 96,480 C 81.76,480, 69.12,470.448, 65.248,456.816L 1.216,200.72C 0.4,197.792,0,194.864,0,192
	l0-144 c0-23.888, 14.848-48, 48-48l 416,0 c 23.888,0, 48,14.848, 48,48l0,144 C 512,194.928, 511.584,197.872, 510.752,200.816z M 361.872,192
	c-6.064,0-11.6-3.424-14.32-8.848L 319.984,128l-128,0 l-27.584,55.152C 161.68,188.576, 156.16,192, 150.096,192L 64,192 L 120.128,416l 271.744,0 L 448,192L 361.872,192 zM 368,384L 144,384L 137.6,352L 374.4,352 zM 112,224L 400,224L 393.6,256L 118.4,256 zM 380.8,320L 131.2,320L 124.8,288L 387.2,288 z"  />
<glyph unicode="&#x6e;" d="M 480,480L 32,480 C 14.32,480,0,465.68,0,448l0-320 c0-17.68, 14.32-32, 32-32l 182.752,0 l-33.504-33.536c-5.12-5.088-6.656-12.816-3.872-19.472
	C 180.128,36.336, 186.624,32, 193.872,32l 124.256,0 c 7.248,0, 13.744,4.336, 16.496,11.008c 2.784,6.656, 1.248,14.368-3.872,19.472L 297.248,96L 480,96 
	c 17.68,0, 32,14.32, 32,32L 512,448 C 512,465.68, 497.68,480, 480,480z M 448,160L 64,160 L 64,416 l 384,0 L 448,160 z"  />
<glyph unicode="&#x6f;" d="M 273.456,197.584c-1.936-1.28-3.984-2.096-6.112-2.928
	c-1.792-0.688-3.52-1.456-5.376-1.808c-2.080-0.4-4.128-0.336-6.256-0.32c-1.984,0.016-3.904-0.048-5.872,0.336
	c-1.952,0.384-3.744,1.184-5.648,1.952c-2.032,0.832-3.984,1.616-5.824,2.864c-0.576,0.368-1.248,0.448-1.808,0.88L0,379.456L0,128 
	c0-17.68, 14.32-32, 32-32l 448,0 c 17.68,0, 32,14.32, 32,32L 512,376.24 L 275.184,198.4C 274.656,198, 274,197.936, 273.456,197.584zM 512,448c0,17.68-14.32,32-32,32L 32,480 C 14.32,480,0,465.68,0,448l 255.984-197.344L 512,448z"  />
<glyph unicode="&#x70;" d="M 288,256l 224,0 C 497.376,372.912, 404.912,465.408, 288,480L 288,256 zM 224,192l0,28 L 224,416 C 100.32,416,0,315.712,0,192s 100.32-224, 224-224s 224,100.288, 224,224L 252,192 L 224,192 z"  />
<glyph unicode="&#x71;" d="M 96,416L 416,224L 96,32 z"  />
<glyph unicode="&#x72;" d="M 438.298,214.036c 32.748-9.615, 27.136-33.388, 27.034-49.326L 383.636,164.71 c-2.934,9.646-10.194,18.652-27.525,23.711l-5.484,1.644
					c-22.927,6.671-35.2,10.276-38.42,17.5c-0.773,2.606-0.543,5.494, 7.107,8.269c 24.581,7.153, 37.023,10.895, 39.962,20.101l 1.556,0 
					c-0.42,0.369-0.824,0.732-1.208,1.172c-12.14,11.709-21.417,34.56-21.417,53.007c0,26.086, 19.963,43.228, 38.871,43.228
					c 18.888,0, 37.883-18.514, 37.883-44.641c0-18.452-10.317-40.576-22.989-51.896C 394.578,226.161, 408.822,222.674, 438.298,214.036zM 381.885,104.771L 128.077,104.771 c-0.154,2.545-0.312,5.079-0.62,8.079c-0.778,10.025-1.567,20.352, 1.244,29.778
						c 3.425,11.069, 12.314,20.797, 32.886,26.783l 7.951,2.545c 36.163,10.327, 55.501,16.159, 61.891,29.778l 2.033,3.43l-0.154,4.347
						c-0.471,0.302-0.778,0.589-1.403,1.341c-2.186,2.243-4.367,4.495-6.4,7.173c-14.029,17.823-24.003,45.348-24.003,68.081
						c0,29.041, 21.519,59.863, 53.627,59.863c 25.108,0, 52.081-24.847, 52.081-61.952c0-23.649-12.324-52.966-29.158-70.18
						c-1.091-1.203-2.34-2.243-3.425-3.297l-2.028-1.802l 0.63-2.703c 4.362-17.039, 24.003-22.881, 63.447-34.104l 8.1-2.54
						c 20.429-5.996, 30.090-15.872, 34.299-26.783l 0.154,0 c 3.912-10.619, 3.43-22.159, 2.959-32.927C 382.034,108.063, 382.034,106.271, 381.885,104.771zM 70.989,214.036c-32.773-9.615-27.121-33.388-27.039-49.326l 81.669,0 c 2.964,9.646, 10.189,18.652, 27.556,23.711l 5.458,1.644
					c 22.953,6.671, 35.236,10.276, 38.426,17.5c-0.87,2.872, 0.712,7.168-7.112,8.269c-24.556,7.153-37.012,10.895-39.941,20.101l-1.536,0 
					c 0.415,0.369, 0.835,0.732, 1.203,1.172c 12.145,11.709, 21.422,34.56, 21.422,53.007c0,26.086-19.963,43.228-38.866,43.228
					c-18.908,0-37.898-18.514-37.898-44.641c0-18.452, 10.281-40.576, 22.953-51.896C 114.683,226.161, 100.419,222.674, 70.989,214.036z"  />
<glyph unicode="&#x73;" d="M 358.062,336.292c-29.327,0-56.049-11.341-76.032-29.86c-9.452-8.233-19.523-19.123-29.614-33.516
		c-7.393,10.552-14.781,19.215-21.924,26.337c-20.5,22.728-50.171,37.038-83.118,37.038c-61.732,0-111.949-50.222-111.949-111.949
		c0-61.732, 50.222-111.949, 111.949-111.949c 32.005,0, 60.913,13.507, 81.336,35.103c 7.69,7.439, 15.693,16.66, 23.706,28.093
		c 10.906-15.555, 21.786-27.018, 31.887-35.461c 0.266-0.23, 0.522-0.466, 0.788-0.691c 20.28-17.444, 46.188-27.049, 72.97-27.049
		c 61.732,0, 111.949,50.222, 111.949,111.949S 419.789,336.292, 358.062,336.292z M 147.553,154.629c-38.436,0-69.709,31.273-69.709,69.709
		c0,38.436, 31.268,69.709, 69.709,69.709s 78.776-52.577, 78.776-69.709C 226.335,209.797, 185.994,154.629, 147.553,154.629z M 357.253,154.629
		c-38.436,0-78.776,55.163-78.776,69.709c0,17.132, 40.34,69.709, 78.776,69.709s 69.709-31.273, 69.709-69.709
		C 426.967,185.907, 395.689,154.629, 357.253,154.629z"  />
<glyph unicode="&#x74;" d="M 438.717,444.477L 85.734,444.477 C 69.489,444.477, 56.32,431.314, 56.32,415.058l0-382.387   c0-6.605, 2.253-12.641, 5.934-17.551l 23.48,46.966l 29.414-58.829l 29.414,58.829l 29.414-58.829l 29.414,58.829l 29.414-58.829l 29.414,58.829l 29.414-58.829  l 29.414,58.829l 29.414-58.829l 29.414,58.829l 29.414-58.829l 29.414,58.829l 23.48-46.966c 3.676,4.91, 5.934,10.947, 5.934,17.551L 468.122,415.058   C 468.132,431.314, 454.953,444.477, 438.717,444.477z M 213.545,157.906c-9.124-9.441-22.405-15.846-39.859-19.174l0-29.087   c-4.116-1.004-8.335-1.51-12.646-1.51c-4.321,0-8.632,0.507-12.948,1.51l0,26.568 l-2.345,0 c-6.477,0-12.268,0.174-17.357,0.507  c-5.105,0.343-9.958,0.876-14.556,1.633c-4.608,0.748-9.175,1.71-13.686,2.877c-4.511,1.172-9.221,2.601-14.116,4.265  c 0.589,4.854, 1.664,9.733, 3.236,14.664c 1.572,4.941, 3.425,10.066, 5.596,15.427c 8.228-2.847, 15.974-4.813, 23.24-5.888  c 7.245-1.091, 14.996-1.633, 23.229-1.633c 12.36,0, 21.908,1.797, 28.677,5.402c 6.774,3.589, 10.153,9.39, 10.153,17.418  c0,4.004-0.932,7.306-2.801,9.892c-1.859,2.601-4.209,4.731-7.050,6.41c-2.847,1.664-6.031,3.087-9.564,4.25  c-3.528,1.172-6.958,2.427-10.291,3.758l-15.59,5.77c-6.472,2.345-12.355,4.808-17.654,7.398c-5.294,2.591-9.851,5.678-13.67,9.277  c-3.83,3.589-6.764,7.813-8.827,12.662c-2.063,4.849-3.087,10.778-3.087,17.802c0,15.043, 4.997,26.911, 15.002,35.604  c 9.999,8.689, 23.828,13.957, 41.472,15.8l0,26.568 c 4.116,1.009, 8.335,1.51, 12.646,1.51c 4.122,0, 8.428-0.502, 12.948-1.51l0-25.82   c 7.834-0.502, 15.391-1.464, 22.641-2.877c 7.255-1.423, 14.909-3.302, 22.953-5.647c-1.178-9.697-4.326-19.226-9.421-28.585  c-2.939,1.004-5.934,2.007-8.96,3.011c-3.046,1.004-6.282,1.838-9.708,2.504c-3.43,0.671-7.311,1.213-11.617,1.628  c-4.316,0.42-9.221,0.625-14.71,0.625c-3.333,0-6.723-0.21-10.148-0.625c-3.441-0.415-6.523-1.295-9.272-2.637  c-2.744-1.336-4.997-3.215-6.764-5.637c-1.766-2.427-2.642-5.555-2.642-9.4c0-3.354, 0.681-6.19, 2.053-8.53  c 1.372-2.345, 3.236-4.301, 5.591-5.888c 2.35-1.597, 5.002-2.975, 7.946-4.137c 2.934-1.172, 5.878-2.253, 8.827-3.261l 17.644-6.267  c 7.444-2.678, 14.208-5.35, 20.301-8.023c 6.077-2.678, 11.218-5.893, 15.442-9.651c 4.209-3.763, 7.496-8.361, 9.851-13.793  c 2.355-5.427, 3.533-12.252, 3.533-20.434C 227.22,178.929, 222.653,167.357, 213.545,157.906z M 424.003,91.505L 335.759,91.505   c-8.131,0-14.705,6.574-14.705,14.705c0,8.115, 6.574,14.71, 14.705,14.71l 88.243,0 c 8.115,0, 14.71-6.595, 14.71-14.71  C 438.717,98.079, 432.118,91.505, 424.003,91.505z M 424.003,165.038L 291.64,165.038 c-8.131,0-14.71,6.579-14.71,14.71  c0,8.115, 6.579,14.705, 14.71,14.705l 132.367,0 c 8.115,0, 14.71-6.589, 14.71-14.705C 438.717,171.622, 432.118,165.038, 424.003,165.038z   M 424.003,238.572L 291.64,238.572 c-8.131,0-14.71,6.589-14.71,14.71c0,8.125, 6.579,14.705, 14.71,14.705l 132.367,0 c 8.115,0, 14.71-6.579, 14.71-14.705  C 438.717,245.156, 432.118,238.572, 424.003,238.572z M 424.003,312.105L 291.64,312.105 c-8.131,0-14.71,6.584-14.71,14.71  c0,8.131, 6.579,14.71, 14.71,14.71l 132.367,0 c 8.115,0, 14.71-6.579, 14.71-14.71C 438.717,318.694, 432.118,312.105, 424.003,312.105z"  />
<glyph unicode="&#x75;" d="M 11.996,203.008C 4.803,207.811,0,217.4,0,225.802c0,8.397, 3.599,16.189, 12.595,20.388L 11.996,246.19 c 42.583,25.19, 101.965,58.778, 141.553,82.171  l0-55.782 c-15.596-8.996-36.588-19.195-89.37-47.386l 0.599-0.594c 28.191-12.6, 60.58-31.79, 88.771-48.584l0-56.381 L 11.996,203.008zM 500.004,244.992c 7.188-4.803, 11.996-14.397, 11.996-22.794c0-8.397-3.599-16.189-12.6-20.388l 0.604,0   c-42.583-25.19-101.97-58.778-141.553-82.171L 358.451,175.421 c 15.596,8.991, 36.588,19.19, 89.37,47.38l-0.599,0.594  c-28.186,12.6-60.58,31.79-88.771,48.584L 358.451,328.361 L 500.004,244.992zM 237.573,112.159L 201.677,112.159 L 273.818,335.841l 36.506,0 L 237.573,112.159z"  />
<glyph unicode="&#x20;" horiz-adv-x="256" />
<glyph class="hidden" unicode="&#xf000;" d="M0,480L 512 -32L0 -32 z" horiz-adv-x="0" />
</font>
</defs>
</svg>
